<svg xmlns="http://www.w3.org/2000/svg" version="1.1" xmlns:xlink="http://www.w3.org/1999/xlink" width="511.9999999999999px" height="511.9999999999998px"><svg xmlns="http://www.w3.org/2000/svg" version="1.1" xmlns:xlink="http://www.w3.org/1999/xlink" width="511.9999999999999px" height="511.9999999999998px"><svg height="511.9999999999998px" stroke-miterlimit="10" style="fill-rule:nonzero;clip-rule:evenodd;stroke-linecap:round;stroke-linejoin:round;" version="1.1" viewBox="0 0 512 512" width="511.9999999999999px" xml:space="preserve" xmlns="http://www.w3.org/2000/svg" xmlns:xlink="http://www.w3.org/1999/xlink">
<defs></defs>
<g id="Слой-1">
<path d="M34.8271 124.217C34.8271 74.8484 74.8484 34.8271 124.217 34.8271L387.783 34.8271C437.152 34.8271 477.173 74.8484 477.173 124.217L477.173 387.783C477.173 437.152 437.152 477.173 387.783 477.173L124.217 477.173C74.8484 477.173 34.8271 437.152 34.8271 387.783L34.8271 124.217Z" fill="#ffffff" fill-rule="nonzero" opacity="1" stroke="none"></path>
<g opacity="1">
<path d="M256.795 52.4253C252.841 52.9993 252.617 53.1268 255.488 53.1906C256.795 53.2225 258.517 53.3501 259.314 53.4458C262.886 54.0198 256.955 54.6257 249.269 54.4981C246.813 54.4344 244.74 54.3387 244.645 54.2749C244.581 54.1792 244.709 53.956 244.964 53.7966C245.793 53.2225 243.337 53.8603 242.03 54.53C241.36 54.8808 240.818 55.1997 240.818 55.2316C240.818 55.2635 242.763 55.2316 245.123 55.1679C249.269 55.0403 249.428 55.0403 249.428 55.6781C249.428 56.5392 248.663 56.6986 244.358 56.6986C240.914 56.6986 240.754 56.7305 240.914 57.3364C241.073 57.9423 240.914 57.9742 237.661 57.9742C235.779 57.9742 234.121 58.1018 233.929 58.2612C233.547 58.6439 228.668 59.5688 227.137 59.5688C226.499 59.5369 225.638 59.3455 225.191 59.0904C223.884 58.3569 222.449 58.5483 219.132 59.8877C217.41 60.5574 214.795 61.4503 213.328 61.8011C211.893 62.1838 210.394 62.5665 210.043 62.6622C209.469 62.8216 209.437 62.7897 209.884 62.2795C210.33 61.7692 210.298 61.7373 209.724 61.8968C209.374 61.9925 208.162 62.3114 207.014 62.5984C205.866 62.8854 201.879 64.2886 198.148 65.6599C191.451 68.1793 188.485 68.9127 188.071 68.243C187.847 67.8603 186.636 68.1793 182.968 69.5824C181.756 70.0608 180.608 70.3797 180.417 70.3159C180.226 70.2203 178.535 71.2408 176.622 72.5164C174.74 73.8239 173.114 74.8763 172.986 74.8763C172.859 74.8763 173.114 74.5255 173.529 74.079C173.943 73.6326 174.198 73.2818 174.103 73.2818C174.007 73.2818 172.763 73.9196 171.328 74.7168C169.893 75.5141 168.585 76.1519 168.426 76.1519C167.533 76.1519 154.522 85.2727 152.991 86.9629L152.385 87.6326L153.884 86.9629C154.713 86.6121 155.478 86.3888 155.574 86.4526C155.638 86.5483 154.426 87.6645 152.831 88.9082C151.237 90.1519 149.929 91.3319 149.929 91.4914C149.929 91.9697 148.016 92.767 147.378 92.5756C145.56 92.0016 148.08 87.9196 151.205 86.3888C152.863 85.5597 159.178 81.095 159.178 80.7442C159.178 80.4572 157.328 81.5733 154.49 83.6144C152.863 84.7624 151.269 85.7191 150.886 85.7191C150.535 85.7191 149.387 86.1337 148.335 86.6759C147.282 87.1861 146.198 87.6326 145.943 87.6326C145.146 87.6326 146.294 85.8148 147.825 84.7305C149.1 83.7738 154.171 80.9355 154.554 80.9355C154.649 80.9355 154.681 81.2226 154.554 81.5415C154.394 82.1155 154.458 82.1474 155.287 81.9241C156.722 81.5096 158.125 80.6804 161.857 78.161C165.907 75.4184 167.469 74.5574 168.49 74.5574C168.904 74.5574 171.105 73.505 173.401 72.2294C177.77 69.8376 179.173 68.9446 178.918 68.6895C178.854 68.5938 176.781 69.6781 174.358 71.0813C170.148 73.505 169.096 73.9196 170.021 72.8034C170.945 71.6872 169.829 72.0061 166.162 73.8877C164.057 75.0039 162.239 75.8011 162.144 75.7055C161.888 75.4503 155.096 79.0221 151.205 81.4139C149.547 82.4344 146.836 84.3159 145.146 85.5916C142.212 87.792 142.052 87.9834 141.702 89.5779C141.478 90.4709 140.713 92.8627 139.98 94.9037L138.64 98.5711L134.941 101.601C128.435 106.99 124.034 110.913 119.219 115.665C116.636 118.216 114.531 120.161 114.531 119.97C114.531 119.204 117.401 115.346 120.112 112.507C122.982 109.478 124.481 108.138 124.225 108.84C123.907 109.733 128.69 105.013 129.934 103.195C130.508 102.366 131.273 101.633 131.656 101.537C132.485 101.314 136.057 97.8057 136.695 96.562C137.492 95.0312 136.344 94.7761 135.005 96.1793C134.526 96.6895 133.346 97.423 132.39 97.8057C130.923 98.3797 130.54 98.7305 130.03 99.7829C129.679 100.58 127.383 103.1 124.002 106.448C120.973 109.414 118.485 111.774 118.421 111.71C118.358 111.646 118.964 110.562 119.793 109.286C121.355 106.895 124.353 103.737 125.405 103.418C126.139 103.163 126.203 102.749 125.501 102.494C125.182 102.366 124.385 102.908 123.205 104.088C122.216 105.077 121.036 106.065 120.59 106.352C120.143 106.608 118.804 108.33 117.56 110.147C116.348 111.997 114.276 114.676 113.032 116.111C111.756 117.546 109.907 119.81 108.886 121.118C107.897 122.425 105.027 125.583 102.54 128.134C97.9795 132.854 96.066 135.309 96.5763 135.819C97.0865 136.33 98.2027 135.214 101.487 130.972C103.273 128.676 104.772 126.89 104.868 126.986C104.964 127.081 104.645 127.751 104.134 128.453C102.348 130.972 102.253 131.131 102.667 130.876C102.859 130.749 103.05 130.781 103.05 130.94C103.05 131.546 101.169 133.778 99.2551 135.437C98.1708 136.393 96.9908 137.733 96.6082 138.466L95.9703 139.774L97.1184 138.69C97.7562 138.084 98.2665 137.701 98.2665 137.892C98.2665 138.052 97.533 139.327 96.64 140.699C94.9498 143.378 93.164 146.726 93.164 147.268C93.164 148.097 93.9293 147.428 95.0136 145.642C97.1503 142.102 99.2551 138.977 99.5102 138.977C99.6697 138.977 99.7016 139.359 99.6378 139.838C99.4783 140.699 99.5102 140.699 99.9248 140.093C100.18 139.742 101.583 137.446 103.082 134.99C105.538 130.876 105.761 130.366 105.793 128.676C105.856 127.145 106.08 126.444 107.164 124.658C108.312 122.712 108.631 122.393 110.321 121.66C112.872 120.512 114.531 120.544 114.531 121.756C114.531 122.393 108.695 128.134 108.057 128.134C107.483 128.134 102.954 137.892 102.986 139.008C102.986 139.742 102.635 140.188 100.977 141.528C98.3621 143.569 94.8861 147.747 91.2186 153.2C89.656 155.56 88.2847 157.696 88.189 157.952C88.0933 158.175 88.2847 158.653 88.6355 159.004C89.2414 159.61 89.2414 159.642 87.8701 161.619C87.1047 162.703 86.435 163.756 86.3712 163.979C86.0523 164.872 85.8929 163.851 86.1799 162.608C86.3394 161.842 86.435 161.173 86.3712 161.109C86.3075 161.045 84.8724 163.756 83.1503 167.136C81.4282 170.485 79.8018 173.419 79.5785 173.61C79.1321 173.961 78.1753 176.352 78.1753 177.054C78.1753 177.245 78.6856 176.48 79.2915 175.332C80.5034 173.1 81.492 171.92 81.779 172.366C81.8747 172.494 81.2687 174.28 80.4396 176.289C78.3667 181.327 76.8997 185.601 76.4532 188.024L76.0705 190.097L74.5079 190.129L72.9134 190.161L72.8496 188.567C72.7539 186.653 73.2961 181.136 73.7744 179.223C73.9658 178.489 74.0295 177.788 73.9658 177.692C73.7106 177.469 69.5648 188.12 67.779 193.573C65.7061 199.888 65.1001 199.92 66.3758 193.637C66.7585 191.883 67.0774 189.97 67.1412 189.364C67.2687 188.152 70.3621 180.562 70.9999 179.892C71.2232 179.669 71.7334 178.521 72.1161 177.373C72.5307 176.193 73.5831 173.578 74.5398 171.505C75.4646 169.464 76.3895 167.072 76.6127 166.211C76.804 165.35 77.1229 164.489 77.3143 164.33C77.6332 163.979 77.6332 164.043 76.7403 167.838C76.0705 170.772 75.5603 174.248 75.6879 175.109C75.7835 175.651 76.0387 175.332 76.8678 173.737C77.6651 172.207 78.0159 170.995 78.2391 169.113C78.6537 165.159 79.2596 163.532 81.3325 160.726C83.9475 157.186 84.7448 155.624 83.1184 157.154C82.6719 157.569 82.3211 157.792 82.3211 157.665C82.3211 157.378 84.0113 154.89 85.3507 153.168C86.7539 151.414 87.0409 150.776 86.0842 151.637C84.7129 152.913 84.8086 152.434 86.4031 150.362C87.2642 149.277 88.6993 147.3 89.6241 145.929C90.5489 144.589 92.0159 142.74 92.9088 141.815C94.0888 140.603 94.5353 139.838 94.599 139.104C94.6309 138.562 95.1093 137.159 95.6514 135.979L96.6719 133.81L93.9293 136.298C90.2938 139.614 89.2733 140.89 86.0842 146.311C79.3234 157.824 76.517 163.182 73.5512 170.261C72.6901 172.334 71.8291 173.929 71.6696 173.865C71.2232 173.706 68.5443 179.669 66.9817 184.261C65.6423 188.28 65.2915 190.671 64.8131 199.091C64.4623 204.99 63.4418 210.826 62.5489 212.07C61.8792 212.963 61.4646 214.589 61.1457 217.428C60.9225 219.118 60.5079 220.298 60.2209 219.979C60.1252 219.883 60.189 218.958 60.3484 217.938C60.6992 215.897 60.3803 215.132 59.6468 216.025C59.296 216.439 59.2323 217.428 59.296 220.33C59.4236 224.571 58.8496 229.036 58.2436 228.781C58.0204 228.717 57.7015 228.781 57.5102 228.972C57.1594 229.323 57.0956 229.259 56.7129 227.952C56.6491 227.697 56.394 228.749 56.1389 230.343C55.5648 234.075 55.5648 240.293 56.1708 243.1C56.394 244.312 56.6172 246.99 56.6172 249C56.6172 252.061 56.5215 252.986 55.8837 254.612C55.2459 256.302 55.1821 257.036 55.2778 259.81C55.3097 261.596 55.2459 263.031 55.1184 263.031C54.7995 263.031 55.214 269.728 55.5648 270.366C55.7881 270.749 55.82 270.685 55.8518 270.111C55.8518 268.676 56.4259 269.473 56.6491 271.227C56.9999 274.289 58.0842 279.328 58.6263 280.539L59.1685 281.687L59.3598 279.296C59.5193 277.191 59.4555 276.808 58.8496 275.947C58.148 274.959 58.1161 274.672 57.6058 266.699L57.4464 264.148L57.8928 266.412C58.2755 268.421 59.2323 270.908 59.5193 270.621C59.5831 270.59 59.4555 269.282 59.2641 267.719C59.009 265.646 59.009 264.69 59.296 263.892C59.7106 262.713 59.4874 249.829 59.009 248.202C58.8177 247.564 58.7858 248.234 58.8815 250.179C59.1047 253.592 58.6263 254.166 58.1161 251.136C57.5739 247.788 57.2869 234.553 57.7653 233.405C58.2755 232.129 58.6582 232.129 58.4669 233.373C58.3393 234.33 58.8815 235.414 59.3598 235.127C59.5193 235.031 59.7106 234.362 59.8382 233.596C59.9657 232.863 60.1571 232.129 60.2528 231.97C60.3165 231.81 60.9225 233.341 61.5603 235.318L62.7083 238.954L62.6765 245.651C62.6446 250.307 62.517 252.571 62.2619 253.082C61.943 253.656 61.943 254.58 62.23 257.387C62.4532 259.364 62.6446 262.904 62.7083 265.296C62.7402 267.751 62.9316 269.888 63.1229 270.239C63.3143 270.558 63.5056 270.653 63.5056 270.43C63.5056 269.537 64.1434 270.143 64.1434 271.068C64.1434 271.642 64.3667 273.46 64.6218 275.054C65.1001 277.924 65.0683 278.052 64.4623 278.658C64.1115 279.009 63.8245 279.551 63.8245 279.87C63.8245 280.189 63.6332 280.731 63.378 281.082C62.9316 281.656 62.8678 281.592 62.1981 279.997C61.8154 279.072 61.4646 278.371 61.4008 278.435C61.337 278.467 61.4965 279.391 61.7516 280.412C62.3257 282.836 62.3257 283.154 61.7835 282.931C61.0181 282.644 60.8906 283.888 61.2733 287.842C61.6241 291.031 61.7835 291.701 62.4213 292.403C63.0273 293.009 63.1867 293.551 63.1867 294.795C63.1867 297.123 63.8245 301.779 64.4623 304.33C64.7812 305.542 65.0045 306.594 64.9407 306.658C64.9088 306.722 63.984 305.191 62.9316 303.277C61.2733 300.344 59.9976 298.526 59.9976 299.164C59.9976 299.259 60.7311 301.236 61.6241 303.564C62.804 306.754 63.2186 308.189 63.1548 309.273C63.0591 310.836 63.7607 313.387 64.1115 312.845C64.3986 312.366 67.8746 316.416 69.1503 318.713C69.7243 319.765 70.2027 320.339 70.2027 320.02C70.2027 318.968 68.6081 314.631 67.4601 312.621C65.5785 309.241 66.2801 309.656 68.4168 313.195C69.533 315.045 71.3507 317.82 72.4669 319.382C73.5512 320.913 74.8587 323.177 75.3371 324.421C76.4213 327.195 78.0159 332.808 77.7608 333.063C77.1229 333.733 74.9863 330.257 74.9863 328.503C74.9863 327.61 73.8701 328.216 73.7106 329.205C73.5512 330.098 73.4874 330.066 72.9453 328.407C72.6264 327.451 72.1161 326.366 71.7653 326.016C71.4145 325.665 70.2027 323.719 69.0546 321.71C67.9384 319.701 66.6309 317.596 66.1844 317.086L65.3872 316.129L65.8974 317.15C66.4077 318.234 67.4282 322.667 67.2049 322.89C67.1412 322.954 66.6947 322.316 66.1844 321.423C65.4509 320.02 64.7812 319.35 64.7812 319.988C64.7812 320.435 68.7676 327.451 69.0227 327.451C69.1822 327.451 69.1822 327.164 69.0865 326.813C68.9908 326.462 68.9908 326.175 69.0865 326.175C69.2778 326.175 72.0523 331.883 72.5307 333.255C72.6582 333.574 72.5945 333.829 72.435 333.829C72.2437 333.829 72.1161 333.669 72.1161 333.51C72.1161 333.095 70.9361 333.095 70.6491 333.542C70.394 333.988 72.3074 335.965 73.2323 336.189C73.7106 336.316 74.0933 336.763 74.3484 337.496C74.5398 338.102 74.9225 338.804 75.1457 339.059C75.4008 339.314 76.9954 341.929 78.6856 344.863C84.0113 354.111 87.5512 359.437 89.943 361.701C91.5694 363.264 91.3781 362.435 89.5603 360.107C87.6469 357.683 86.4669 355.642 86.4669 354.845C86.4669 354.558 85.8291 353.792 85.0318 353.155C84.2346 352.485 83.0227 350.954 82.2573 349.678C80.6309 346.872 79.0045 343.109 79.3234 342.822C79.451 342.694 79.5785 342.758 79.6423 342.918C80.1526 344.321 84.2346 349.742 87.1047 352.868C89.4646 355.387 91.4419 357.938 93.164 360.681C94.5672 362.881 95.7152 364.858 95.7152 365.05C95.7152 365.241 95.4601 365.273 95.1731 365.177C94.7266 365.018 94.7585 365.177 95.3963 366.23C97.2141 369.291 99.7334 372.321 104.645 377.36C110.289 383.196 112.936 386.161 112.936 386.672C112.936 386.863 113.638 388.107 114.531 389.446C115.392 390.786 116.125 392.061 116.125 392.284C116.125 393.177 120.207 396.622 124.002 398.918C125.533 399.874 127.223 401.341 129.2 403.51C131.465 405.966 132.581 406.922 134.112 407.656C135.196 408.198 137.077 409.442 138.289 410.398C139.533 411.355 141.797 413.141 143.328 414.321C144.891 415.533 146.23 416.713 146.326 416.968C146.549 417.51 148.718 418.658 149.547 418.658C150.28 418.658 153.118 420.444 153.118 420.89C153.118 421.528 161.378 426.471 162.08 426.248C162.271 426.184 161.538 425.483 160.421 424.717C159.337 423.952 158.604 423.25 158.795 423.186C159.21 423.059 165.556 426.28 166.831 427.269L167.629 427.906L166.768 427.906C166.257 427.906 165.875 428.002 165.875 428.161C165.875 428.289 166.8 429.022 167.948 429.788C169.096 430.553 170.021 431.319 170.021 431.478C170.021 431.861 175.251 434.284 178.759 435.528C182.394 436.804 186.38 437.824 193.301 439.196C196.362 439.802 200.54 440.822 202.549 441.46C211.51 444.298 222.417 446.69 229.018 447.296C230.677 447.455 233.706 447.519 235.715 447.455C239.351 447.296 239.383 447.296 240.148 448.125C240.658 448.667 241.264 448.954 241.902 448.954C242.763 448.986 242.795 449.018 242.317 449.305C241.902 449.56 240.371 449.464 236.736 448.986C233.993 448.603 231.314 448.316 230.772 448.348L229.816 448.38L230.709 448.731C232.271 449.337 231.633 449.592 228.476 449.592C225.765 449.624 225.415 449.656 225.925 450.038C226.371 450.389 226.786 450.421 227.679 450.166C229.018 449.783 233.387 450.007 238.522 450.708C242.795 451.282 250.034 451.888 250.385 451.665C250.545 451.569 251.693 451.474 253 451.474C255.232 451.442 258.677 452.111 260.176 452.845C260.654 453.1 262.822 453.132 267.032 453.004C272.453 452.813 274.494 452.622 280.267 451.665C281.032 451.537 281.542 451.282 281.447 451.123C281.351 450.963 281.415 450.644 281.638 450.389C281.925 450.07 281.861 449.879 281.447 449.656C280.841 449.337 281 449.273 286.836 448.125C289.228 447.679 289.834 447.647 290.886 447.997C291.588 448.221 292.066 448.508 292.002 448.667C291.907 448.795 290.982 448.986 289.898 449.114C288.622 449.273 288.08 449.464 288.271 449.656C288.622 450.007 289.802 449.783 294.043 448.635C295.351 448.284 296.467 448.061 296.531 448.125C296.627 448.189 295.702 448.571 294.554 448.954C293.406 449.337 292.481 449.72 292.545 449.783C292.608 449.847 293.597 449.656 294.713 449.401C295.861 449.146 300.294 448.284 304.599 447.487C316.59 445.319 314.836 446.02 329.315 437.952C332.823 436.007 337.064 433.934 338.722 433.328C340.381 432.722 344.686 430.745 348.321 428.959C352.053 427.141 354.987 425.865 355.05 426.057C355.114 426.248 356.964 425.291 359.164 423.92C367.711 418.499 369.146 417.701 370.135 417.701C370.868 417.701 371.665 417.255 373.196 416.011C374.312 415.086 377.533 412.535 380.34 410.398C385.538 406.38 386.845 405.168 384.23 406.699C383.401 407.145 382.604 407.464 382.444 407.337C382.253 407.241 381.137 408.134 379.957 409.314C378.362 410.909 377.374 411.61 376.194 411.993C374.823 412.439 373.993 412.535 374.472 412.184C374.695 411.993 382.54 405.519 383.146 404.977C383.624 404.594 383.784 404.562 383.975 404.913C384.167 405.2 384.326 405.232 384.454 404.977C384.581 404.786 384.517 404.626 384.294 404.626C384.007 404.626 384.007 404.53 384.294 404.18C384.485 403.925 384.645 403.606 384.613 403.478C384.485 402.745 384.741 402.362 385.761 401.596C386.335 401.118 387.101 400.704 387.419 400.672C387.738 400.608 389.11 399.237 390.513 397.578C395.392 391.71 398.103 388.649 398.262 388.776C398.485 389 397.561 390.626 396.285 392.348C395.137 393.847 395.265 393.943 396.763 392.699L397.561 392.029L396.923 392.827C396.604 393.273 395.073 394.899 393.574 396.494C390.034 400.161 387.834 402.713 387.834 403.063C387.834 405.232 399.952 391.647 406.075 382.622C407.192 380.963 408.914 378.795 409.87 377.838C410.859 376.881 412.932 374.139 414.527 371.779C417.747 366.963 420.075 364.221 421.128 363.934C422.627 363.583 430.057 350.093 432.481 343.396C433.278 341.164 433.916 339.984 434.905 338.899C436.244 337.432 438.859 332.713 438.859 331.756C438.859 331.373 438.668 331.278 438.221 331.437C437.807 331.565 437.52 331.469 437.424 331.182C437.137 330.512 438.763 325.792 439.912 323.847C441.155 321.806 446.64 308.221 447.151 305.956C447.47 304.489 447.342 303.692 446.864 304.011C446.704 304.075 446.417 305.031 446.194 306.084C445.971 307.136 445.588 308.252 445.333 308.539C444.918 309.05 444.918 308.954 445.078 307.583C445.205 306.754 445.779 304.457 446.385 302.48C447.948 297.505 447.789 297.888 448.076 298.398C448.267 298.685 448.458 298.303 448.713 297.186C449.255 294.667 450.595 284.94 450.978 280.89C451.36 276.521 451.36 266.954 450.978 264.945C450.722 263.701 450.722 263.797 450.818 265.742C450.914 266.954 450.85 268.485 450.691 269.091L450.435 270.207L450.18 268.517C449.798 265.806 449.542 266.954 449.638 271.004C449.734 273.46 449.638 274.831 449.415 274.959C449.192 275.118 449.064 274.767 449.064 273.938C449.064 271.833 448.681 268.772 448.426 268.931C448.299 269.027 448.012 269.76 447.789 270.59L447.374 272.12L447.119 271.004C446.991 270.398 446.577 266.954 446.194 263.35C445.811 259.747 445.365 256.526 445.205 256.175C445.014 255.76 444.982 258.599 445.142 263.988C445.492 277.159 445.429 281.656 444.823 284.526C444.312 286.918 443.579 288.098 442.909 287.683C442.75 287.587 442.718 287.938 442.814 288.448C442.941 288.99 442.877 290.617 442.686 292.084C442.495 293.551 442.208 295.847 442.08 297.154C441.729 300.28 440.454 304.936 440.071 304.553C439.912 304.394 439.752 303.437 439.72 302.448C439.688 301.46 439.593 300.854 439.465 301.045C439.337 301.268 438.572 304.17 437.775 307.519C434.426 321.136 431.429 329.874 426.9 339.091C423.807 345.405 420.363 351.273 419.788 351.145C419.629 351.114 419.087 351.975 418.609 353.059C417.62 355.323 414.718 359.724 412.103 363.009C408.946 366.995 405.246 371.141 404.864 371.141C404.321 371.141 401.451 374.521 398.198 378.954C393.128 385.874 392.044 387.214 389.716 389.574C388.185 391.168 387.356 391.806 387.196 391.519C386.813 390.945 382.157 394.357 378.426 397.929C372.335 403.797 361.365 411.929 350.905 418.307C348.353 419.902 347.556 420.253 347.205 419.966C346.663 419.519 345.547 419.934 338.818 423.123C335.182 424.845 333.46 425.483 331.93 425.674C329.793 425.929 325.743 427.619 324.372 428.831C323.925 429.214 323.797 429.469 324.053 429.373C329.41 427.587 329.889 428.034 324.85 430.075C322.554 431 319.971 432.243 319.11 432.817C317.77 433.71 317.069 433.934 314.996 434.125C312.731 434.316 312.381 434.444 311.456 435.401C310.212 436.612 307.948 437.474 305.971 437.474C304.854 437.474 304.408 437.633 303.866 438.303C303.387 438.845 302.526 439.259 301.251 439.546C300.23 439.802 299.305 439.961 299.274 439.897C299.21 439.833 300.007 439.164 301.091 438.398C303.515 436.612 302.909 436.453 298.891 437.792C295.447 438.909 295.415 438.94 296.116 438.143C296.403 437.824 297.743 437.091 299.05 436.517C300.358 435.943 301.378 435.401 301.283 435.337C300.836 434.89 295.128 436.198 289.802 437.952C286.453 439.068 282.563 440.184 281.16 440.471C278.8 440.95 273.602 441.619 272.326 441.619C271.401 441.619 271.688 441.045 272.709 440.822C273.889 440.567 274.176 440.152 273.442 439.77C273.059 439.578 271.21 439.802 268.084 440.407C263.62 441.237 262.95 441.269 258.039 441.109C255.041 440.982 251.342 440.631 249.428 440.28C247.355 439.897 243.56 439.578 239.383 439.387C235.715 439.259 231.888 438.972 230.932 438.749C228.891 438.303 222.13 435.177 221.301 434.284C220.631 433.551 217.027 432.371 212.052 431.255C208.768 430.489 204.845 429.437 203.538 428.927C203.251 428.831 203.665 429.501 204.431 430.394L205.802 432.084L208.895 431.988C210.809 431.925 212.531 432.052 213.456 432.339C215.879 433.041 215.337 433.455 212.371 433.2C210.904 433.105 208.321 432.913 206.599 432.786C203.857 432.626 203.251 432.467 201.816 431.606C200.923 431.063 199.679 429.947 199.073 429.118C198.084 427.779 197.67 427.524 194.768 426.471C192.982 425.802 187.688 423.41 183 421.145C175.474 417.542 174.007 416.936 170.882 416.234C166.162 415.214 163.164 413.683 158.38 409.856C153.916 406.284 153.437 405.997 153.437 406.699C153.437 407.209 153.118 407.177 151.62 406.635C151.396 406.54 151.205 406.635 151.205 406.827C151.205 407.496 149.642 406.189 148.654 404.69C148.08 403.829 147.697 402.84 147.697 402.202C147.697 401.278 147.569 401.118 146.517 400.767C145.624 400.48 143.806 398.854 139.724 394.772C134.239 389.287 134.175 389.223 136.599 390.913C137.97 391.838 139.182 392.508 139.31 392.412C139.661 392.061 139.023 391.583 134.526 388.808C130.54 386.321 129.169 385.683 130.827 387.054C131.241 387.405 131.401 387.692 131.178 387.724C130.349 387.724 126.713 383.61 124.863 380.517C123.843 378.795 123.014 377.168 123.014 376.977C123.046 376.754 121.993 375.542 120.654 374.266C110.034 364.093 107.897 361.988 107.674 361.414C107.547 361.063 107.196 360.489 106.877 360.139C106.08 359.246 102.093 351.528 102.093 350.89C102.093 350.093 100.276 346.681 99.3826 345.883C98.4259 344.991 94.6309 336.858 91.0911 328.088C88.3804 321.391 84.107 309.305 84.3621 309.018C84.4578 308.954 85.3507 309.4 86.3712 310.006C87.3917 310.644 90.1981 312.207 92.6218 313.514C96.959 315.874 97.0546 315.938 97.8519 317.628C98.3621 318.649 98.681 319.956 98.7129 320.913C98.7767 322.922 100.658 326.845 103.337 330.608C104.421 332.107 105.474 333.956 105.729 334.913C106.335 336.922 108.248 340.239 110.385 342.918C111.246 344.034 111.979 345.022 111.979 345.118C111.979 345.82 111.15 344.959 109.46 342.471C108.408 340.908 107.323 339.569 107.068 339.473C106.813 339.378 106.367 338.804 106.048 338.23C105.059 336.284 100.754 329.013 100.626 329.109C100.563 329.173 100.818 330.129 101.137 331.214C102.093 334.243 102.444 336.922 102.03 337.815C101.743 338.453 101.87 338.804 103.178 340.494C104.677 342.439 105.952 343.173 106.654 342.471C107.802 341.323 109.779 343.428 112.681 348.881C114.595 352.453 114.754 352.676 116.125 353.186C118.198 353.952 119.474 355.196 118.198 355.196C117.943 355.196 117.72 355.323 117.72 355.451C117.72 355.865 119.41 358.098 120.431 359.022C121.642 360.139 124.417 363.965 124.417 364.508C124.417 364.763 124.64 365.241 124.895 365.592C125.501 366.389 125.501 366.708 124.895 366.485C124.608 366.357 124.417 366.485 124.417 366.804C124.417 367.41 127.702 370.694 128.563 370.981C129.296 371.205 130.572 370.599 130.317 370.152C129.934 369.578 130.636 369.897 131.497 370.726C131.975 371.205 132.39 371.428 132.39 371.268C132.39 371.077 131.879 370.471 131.273 369.865C130.667 369.259 130.157 368.622 130.157 368.43C130.157 367.856 126.585 362.977 123.588 359.501C119.282 354.494 112.617 344.799 112.458 343.3C112.394 342.918 111.692 341.451 110.831 340.047C109.014 336.986 105.952 330.608 102.572 322.922C100.499 318.139 99.9886 317.246 99.2232 316.927C98.5854 316.672 98.107 316.034 97.4692 314.471C96.959 313.355 96.0979 311.92 95.5239 311.282C94.5353 310.262 94.4077 310.198 93.0364 310.389L91.5694 310.612L90.6446 308.508C89.3052 305.574 88.9544 304.17 89.4965 304.17C90.0387 304.17 89.2414 302.129 87.9658 300.248C87.5193 299.61 87.0728 298.526 86.9453 297.856C86.722 296.58 85.861 294.763 85.8291 295.56C85.8291 295.815 85.9567 296.517 86.1161 297.091C86.2756 297.633 86.3075 298.111 86.148 298.111C86.0204 298.111 85.7334 297.441 85.5421 296.58C85.3188 295.751 84.5854 294.189 83.8838 293.136C83.1822 292.052 82.4806 290.681 82.3211 290.107C81.7471 288.193 81.3325 283.984 81.6833 283.633C82.1617 283.154 82.927 284.047 83.3097 285.546C83.82 287.587 84.3621 287.332 84.0751 285.195C83.82 282.963 84.3302 282.899 84.8086 285.1C84.9999 286.025 85.4145 288.002 85.7015 289.469C86.3075 292.307 86.6583 292.881 89.6879 295.241C90.8678 296.166 90.9954 296.23 90.5489 295.56C89.082 293.487 88.3804 292.084 88.189 290.84C88.0933 290.107 88.0933 289.501 88.2528 289.501C88.6674 289.501 88.2528 281.241 87.7744 280.029C87.3917 279.041 87.3599 279.009 86.5945 279.519C86.0842 279.838 85.7653 280.444 85.6378 281.273C85.2551 283.473 84.7767 282.07 84.7448 278.754C84.7448 276.713 84.8724 275.373 85.1594 274.863C85.5102 274.193 85.5102 274.066 85.0637 273.81C84.4897 273.492 84.3621 271.259 84.8405 269.984C85.0318 269.473 84.9999 268.963 84.7129 268.485C84.2027 267.528 84.0432 267.815 83.5968 270.494C83.2778 272.152 83.2778 273.205 83.5968 275.182C83.9794 277.574 83.9475 277.765 83.4054 278.179C82.5444 278.817 81.9703 278.148 81.5239 275.883C81.0774 273.81 81.1731 273.332 81.9384 273.938C82.353 274.289 82.3849 274.225 82.2255 273.396C81.7471 271.132 81.6195 262.713 81.9703 259.045C82.1936 256.94 82.4806 255.091 82.6081 254.963C82.7357 254.836 82.9589 256.239 83.0546 258.12C83.1503 260.002 83.4054 261.692 83.5968 261.883C84.0113 262.298 84.0113 259.045 83.5649 256.494C83.4054 255.441 83.1822 254.07 83.0865 253.464L82.927 252.348L83.4692 253.273C83.9157 254.102 84.0432 254.134 84.2983 253.656C84.4578 253.369 84.5854 252.667 84.5535 252.093C84.5216 251.519 84.4897 249.51 84.4578 247.596C84.4578 245.013 84.3621 244.312 84.1389 244.886C83.82 245.619 83.82 245.587 83.5649 244.375C83.2141 242.558 83.2141 237.487 83.5968 233.66C83.9157 230.471 84.9999 223.678 85.4145 222.371L85.6059 221.733L85.861 222.371C86.0204 222.722 86.0523 224.667 85.9248 226.676C85.7972 229.769 85.8291 230.28 86.1799 229.929C86.5307 229.61 86.6264 228.271 86.6583 224.348C86.6901 218.799 87.3599 215.068 88.2209 215.419C88.5079 215.514 89.0182 214.876 89.6241 213.601C90.5489 211.783 90.6127 211.337 90.6446 208.211C90.6765 203.683 90.9316 202.248 92.5261 198.166C93.451 195.742 93.8656 194.116 93.9293 192.744C93.9931 191.596 94.3439 190.034 94.8223 188.886C96.0341 185.952 100.403 178.106 100.563 178.585C100.658 178.808 101.041 178.394 101.392 177.66C101.934 176.64 105.027 169.4 106.462 165.829C106.558 165.605 106.813 165.478 107.036 165.573C107.323 165.669 107.579 165.223 107.834 164.234C108.025 163.437 108.695 161.683 109.301 160.375C110.576 157.633 110.512 157.059 109.237 159.259C108.727 160.12 107.196 162.321 105.793 164.17C104.166 166.339 102.54 168.986 101.264 171.665C100.148 173.929 99.2232 175.651 99.2232 175.491C99.2232 174.726 100.307 170.676 101.679 166.307C102.954 162.289 103.369 161.364 104.549 159.993C105.633 158.717 105.92 158.143 105.92 157.186C105.92 155.305 106.813 152.753 107.61 152.339C107.993 152.116 108.503 151.733 108.727 151.446C110.481 149.245 111.948 146.63 113.223 143.473C114.69 139.774 117.401 135.469 118.262 135.469C118.964 135.469 117.911 137.701 114.084 144.239C112.362 147.236 111.788 148.416 112.139 148.48C112.49 148.576 112.235 149.245 111.118 151.286C110.289 152.849 109.779 154.125 109.938 154.284C110.417 154.731 111.214 153.901 111.661 152.53C112.235 150.776 113.223 149.405 113.797 149.628C114.116 149.756 114.499 149.277 115.073 147.97C115.87 146.28 118.836 142.166 119.665 141.655C119.888 141.528 120.175 141.687 120.335 141.974C120.781 142.74 121.1 142.612 122.79 141.049C123.62 140.252 124.417 139.614 124.513 139.614C124.64 139.614 124.353 140.125 123.938 140.762C123.492 141.4 123.141 142.166 123.141 142.453C123.109 142.74 122.121 144.175 120.909 145.674C118.645 148.384 118.198 149.309 119.219 149.118C120.399 148.895 128.212 136.425 129.519 132.758C129.806 131.897 129.711 131.961 128.531 133.3C127.191 134.863 126.649 135.182 126.649 134.384C126.649 134.129 126.267 133.874 125.82 133.81L124.991 133.715L126.203 132.503C126.841 131.865 127.574 131.323 127.829 131.323C128.052 131.323 128.244 131.1 128.244 130.813C128.244 130.557 128.69 129.696 129.2 128.931C129.743 128.166 130.157 127.432 130.157 127.273C130.157 127.145 130.986 126.667 131.975 126.252C132.964 125.806 135.866 124.116 138.417 122.457C140.968 120.799 143.838 119.077 144.763 118.598C146.421 117.801 146.485 117.801 146.9 118.375C147.442 119.109 147.123 119.332 155.829 112.475C162.877 106.958 168.139 103.068 171.488 100.963C174.581 98.9857 174.74 98.9219 173.943 99.8148C173.529 100.229 173.21 100.676 173.21 100.772C173.21 101.186 178.854 98.7624 180.449 97.6463C181.374 97.0084 182.649 95.8285 183.287 95.0312C185.073 92.767 186.667 91.1406 186.954 91.3C187.082 91.3957 189.027 90.8854 191.26 90.1838C193.524 89.4822 195.724 88.9082 196.139 88.9082C196.585 88.9082 198.977 87.6964 201.497 86.1975C206.216 83.3273 208.162 82.4344 212.021 81.2544L214.317 80.5528L215.816 81.4458C217.059 82.1793 217.665 82.3387 219.419 82.3068C221.173 82.3068 221.875 82.1155 223.756 81.1588C225.574 80.2339 227.041 79.8194 231.57 78.9902C234.631 78.4162 238.394 77.9378 239.925 77.874C243.21 77.8102 244.709 77.4913 244.549 77.013C244.485 76.7897 244.039 76.5984 243.592 76.5346C243.114 76.4708 242.731 76.3114 242.731 76.1519C242.731 75.8968 246.239 75.3547 247.355 75.4822C247.706 75.5141 250.13 75.0995 252.777 74.5574C255.392 74.0153 259.187 73.3774 261.164 73.1223C265.469 72.5483 272.9 72.4845 273.219 72.9948C273.315 73.1861 274.048 73.6326 274.845 73.9834C275.611 74.3023 276.153 74.7168 276.057 74.9082C275.77 75.3547 273.091 75.259 272.804 74.7806C272.039 73.4731 267.16 72.931 262.854 73.6326C260.941 73.9515 260.686 74.079 260.845 74.6212C260.941 75.0039 260.654 75.5779 260.08 76.2157L259.155 77.1724L260.59 76.9173C261.387 76.7579 265.406 76.6941 269.52 76.7897C276.217 76.9173 285.72 76.9173 290.567 76.7897C294.458 76.6941 311.583 80.6804 317.77 83.136C319.078 83.6781 320.417 84.0608 320.736 84.0608C321.533 83.997 327.624 87.2818 327.401 87.6326C327.305 87.792 327.688 88.1747 328.262 88.4617C329.793 89.2271 332.089 90.8535 331.93 91.013C331.674 91.3 327.592 90.2157 326.253 89.5141C325.52 89.1633 324.85 88.9401 324.754 89.0358C324.531 89.2909 324.595 89.3228 326.444 90.2795C328.198 91.2043 327.752 91.3957 325.647 90.6622C324.882 90.4071 324.212 90.2157 324.148 90.3114C324.084 90.3752 325.934 91.1087 328.262 91.9378C333.173 93.6918 333.875 94.0107 335.278 95.2545C335.98 95.8285 337.128 96.3387 338.722 96.6895C343.761 97.9014 349.055 100.516 351.957 103.227C352.659 103.897 353.775 104.758 354.444 105.141C355.082 105.555 355.624 106.034 355.656 106.225C355.656 106.448 357.059 107.5 358.75 108.617C361.11 110.147 361.556 110.371 360.567 109.478C359.483 108.489 359.387 108.362 360.089 108.553C361.429 108.904 363.31 109.988 364.171 110.849C364.873 111.519 365.415 111.678 367.456 111.87C369.274 112.029 370.294 112.316 371.378 112.954C373.228 114.038 379.096 119.013 379.574 119.906C379.893 120.48 379.829 120.512 379.16 120.321C378.777 120.193 376.895 119.364 374.982 118.471C373.1 117.61 371.474 116.94 371.378 117.068C371.283 117.163 371.761 117.546 372.463 117.897C374.695 119.045 381.456 124.913 381.456 125.742C381.456 125.901 382.094 126.475 382.891 126.954C383.688 127.464 384.868 128.516 385.57 129.282C386.239 130.047 387.037 130.685 387.292 130.685C387.579 130.685 388.791 131.068 390.034 131.514C392.075 132.28 392.522 132.63 395.041 135.341C396.54 136.999 397.688 138.339 397.561 138.339C397.433 138.339 398.071 139.136 398.964 140.125C401.132 142.485 401.037 143.059 398.836 140.89C397.88 139.933 397.082 139.296 397.082 139.487C397.082 140.157 398.549 142.006 399.602 142.644C400.176 142.995 401.579 144.111 402.759 145.1C405.055 147.109 405.533 147.332 405.214 146.216C405.023 145.546 405.023 145.546 405.661 146.311C406.012 146.758 406.905 148.193 407.606 149.532C408.308 150.872 409.073 152.147 409.36 152.371C410.126 153.009 409.934 153.359 409.041 152.945C408.595 152.753 408.18 152.658 408.085 152.753C407.989 152.849 408.627 154.125 409.552 155.592C412.294 160.056 412.103 159.833 412.422 159.355C412.549 159.1 412.613 158.557 412.486 158.111C412.294 157.25 412.454 157.346 413.665 158.908C414.335 159.801 414.367 159.833 414.144 159.068C413.825 157.92 417.333 163.245 418.8 166.147C419.47 167.519 420.044 168.858 420.044 169.113C420.044 169.4 420.458 170.229 420.968 170.963C421.447 171.696 423.137 174.439 424.668 177.086C426.199 179.701 427.984 182.667 428.622 183.624C429.611 185.154 429.77 185.282 429.866 184.644C429.93 184.23 429.77 183.655 429.515 183.368C429.26 183.081 428.654 182.061 428.176 181.104C427.538 179.797 427.442 179.446 427.825 179.573C428.24 179.733 428.335 179.573 428.335 178.776C428.335 177.819 428.367 177.788 428.941 178.33C429.898 179.223 431.716 183.145 433.087 187.323C434.299 191.118 435.893 194.69 436.18 194.371C436.276 194.275 435.67 192.011 434.841 189.332C432.864 182.794 430.791 177.564 430.376 177.979C430.281 178.075 430.44 178.617 430.727 179.159C431.014 179.733 431.11 180.116 430.95 179.988C430.44 179.669 425.784 173.482 425.784 173.132C425.784 172.94 425.082 171.346 424.189 169.592C423.328 167.838 422.595 166.339 422.595 166.243C422.595 165.573 423.456 166.881 424.827 169.592C425.688 171.314 426.549 172.813 426.741 172.94C427.219 173.227 426.677 171.92 424.636 167.838C423.009 164.617 421.861 162.735 422.467 164.298C423.041 165.765 421.766 164.106 417.684 157.952C415.292 154.348 412.454 150.33 411.433 149.022C410.381 147.715 409.52 146.471 409.52 146.28C409.52 146.088 409.009 145.1 408.403 144.079C407.798 143.059 407.287 142.07 407.287 141.815C407.287 141.241 409.009 142.963 409.711 144.27C410.03 144.876 410.445 145.355 410.572 145.355C411.019 145.355 410.604 144.589 408.722 141.847C406.873 139.264 403.939 136.425 403.046 136.425C402.568 136.425 396.444 130.207 396.444 129.696C396.444 129.537 395.966 129.218 395.424 128.963C394.244 128.421 387.579 122.234 387.866 121.947C388.185 121.596 393.638 125.901 396.189 128.516C397.529 129.888 398.868 131.004 399.123 131.004C399.952 131.004 404.991 135.469 409.998 140.635C415.451 146.216 416.727 147.81 419.246 152.052C420.267 153.71 421.702 155.974 422.467 157.091C423.233 158.207 423.87 159.195 423.87 159.323C423.87 159.706 430.504 169.592 430.759 169.592C430.855 169.592 430.759 169.305 430.568 168.922C430.344 168.571 430.249 168.188 430.344 168.125C430.504 167.933 433.501 172.526 434.267 174.184C434.713 175.109 434.968 175.268 435.542 175.141C436.148 174.981 436.404 175.204 437.233 176.671C437.775 177.596 438.604 179.51 439.05 180.913C439.943 183.528 441.028 186.015 441.251 185.792C441.474 185.569 440.549 180.913 440.167 180.147C439.943 179.733 439.21 178.553 438.54 177.532C436.882 174.981 435.415 170.74 435.064 167.583C434.905 166.147 434.809 164.904 434.873 164.84C434.937 164.776 435.447 165.063 435.989 165.446C436.531 165.829 437.041 166.084 437.137 165.988C437.456 165.669 436.276 163.788 434.618 162.002C431.939 159.068 430.568 157.282 430.568 156.74C430.568 156.453 430.153 155.751 429.643 155.177C428.622 153.997 425.975 148.544 426.422 148.544C426.581 148.544 427.091 149.086 427.57 149.724C428.08 150.393 428.59 151.063 428.718 151.255C429.324 151.956 427.442 148.097 424.987 143.601C421.383 136.999 420.044 134.321 420.044 133.587C420.044 132.694 413.889 125.072 412.964 124.817C412.549 124.721 411.911 124.626 411.529 124.626C411.146 124.626 410.189 124.116 409.392 123.51C408.563 122.904 407.829 122.393 407.734 122.393C407.511 122.393 410.476 126.252 411.114 126.794C412.358 127.847 412.773 127.783 411.752 126.699C410.955 125.838 410.827 125.551 411.274 125.742C411.624 125.87 412.326 126.061 412.836 126.157C414.367 126.412 417.524 130.908 420.235 136.68C421 138.339 421.606 139.774 421.542 139.806C421.479 139.87 420.65 139.136 419.725 138.179C418.768 137.223 417.811 136.425 417.62 136.425C417.397 136.425 416.886 135.947 416.504 135.373C416.089 134.831 414.718 133.236 413.442 131.897C412.167 130.526 411.114 129.282 411.114 129.09C411.114 128.899 409.934 127.528 408.499 126.029C407.032 124.53 405.788 123.159 405.725 122.936C405.565 122.393 403.397 120.161 403.046 120.161C402.886 120.161 402.823 120.384 402.95 120.639C403.173 121.277 402.95 121.245 401.643 120.448C400.431 119.683 398.358 117.131 398.358 116.366C398.358 116.079 398.645 115.665 399.028 115.441C399.602 115.059 399.793 115.09 400.399 115.633C401.738 116.876 403.779 117.993 404.258 117.801C404.959 117.546 405.661 117.961 408.116 120.034C409.647 121.341 410.221 121.66 410.349 121.309C410.604 120.671 409.807 119.268 407.638 116.589C405.119 113.496 403.492 111.933 403.556 112.699C403.588 113.049 403.333 113.336 402.823 113.464C402.185 113.623 402.025 113.847 402.057 114.644L402.121 115.633L400.144 114.261C399.091 113.528 396.7 112.157 394.85 111.2C392.044 109.765 391.023 108.999 388.472 106.48C386.303 104.343 384.9 103.259 383.529 102.621C381.743 101.792 377.406 98.2841 377.757 97.9333C378.012 97.6781 381.105 99.3365 384.262 101.409C385.889 102.494 387.292 103.291 387.388 103.195C387.451 103.1 386.718 102.27 385.697 101.346C384.39 100.166 382.604 99.0494 379.383 97.4868C374.472 95.095 371.665 93.341 370.613 92.0016C369.529 90.6303 370.454 90.9173 373.898 93.054C377.055 94.9993 379.351 96.2431 379.734 96.2431C379.861 96.2431 379 95.3501 377.82 94.2977C375.365 92.0335 375.237 91.4595 377.597 93.341C378.49 94.0426 380.34 95.2863 381.711 96.0836C384.294 97.6463 386.941 99.751 386.271 99.751C385.857 99.751 386.75 101.346 387.419 101.76C388.44 102.398 392.139 105.523 395.615 108.617C397.688 110.498 399.506 112.061 399.665 112.125C401.196 112.699 394.946 105.97 390.959 102.749C389.62 101.664 387.324 99.7192 385.857 98.4754C382.189 95.2863 380.085 93.6918 377.47 92.1611C374.854 90.6303 372.973 89.0996 373.962 89.3228C374.312 89.4185 374.854 89.5779 375.173 89.7055C376.258 90.1519 375.684 89.3547 374.153 88.3342C372.845 87.4412 372.495 87.3137 371.984 87.6326C371.474 87.9515 371.123 87.8877 369.943 87.3137C367.392 86.0062 363.47 83.3273 360.727 80.9355C357.155 77.8421 355.21 76.6622 351.989 75.5141C350.522 74.972 345.802 73.1223 341.529 71.3364C332.695 67.669 324.627 64.5118 323.319 64.1929C322.809 64.0654 322.458 63.7464 322.458 63.4275C322.458 62.3751 321.756 62.12 319.014 62.12C317.547 62.12 315.028 61.9606 313.369 61.7692C309.383 61.2909 308.713 61.5141 311.392 62.407C312.604 62.8216 313.497 63.2043 313.433 63.3C313.146 63.5551 305.46 62.3751 303.515 61.7692C301.984 61.3228 301.57 61.2909 301.219 61.6098C300.772 62.0881 299.624 62.0244 293.756 61.2909C291.747 61.0357 289.643 60.8444 289.069 60.8444C288.494 60.8444 288.016 60.6849 288.016 60.5255C288.016 60.3341 287.538 59.9833 286.996 59.7282C286.007 59.3136 286.166 59.2818 289.611 59.2818C291.62 59.2818 295.032 59.4731 297.169 59.6644C299.337 59.8877 300.964 59.9515 300.836 59.8558C300.166 59.1861 294.522 58.5483 287.059 58.2612C282.595 58.1018 278.258 57.8467 277.428 57.6872C276.567 57.5597 275.898 57.4959 275.898 57.5597C275.898 57.6234 276.535 57.9742 277.333 58.325C278.289 58.7396 279.82 59.0266 281.734 59.1542C283.743 59.2818 285.018 59.5369 285.784 59.9515L286.9 60.5574L285.784 60.366C283.233 59.8877 280.043 59.6007 277.428 59.5688C275.898 59.5688 274.016 59.3774 273.283 59.1223C272.517 58.8672 270.381 58.5802 268.499 58.4526C265.055 58.2294 264.513 58.0061 265.438 57.0813C266.299 56.2202 265.182 55.997 261.005 56.1246C257.561 56.2202 256.699 56.3478 255.424 56.9856C254.244 57.5597 253.606 57.6553 252.617 57.4959C251.31 57.2726 251.182 57.1451 251.597 56.5073C251.884 56.0289 257.21 54.8808 260.239 54.5938C261.961 54.4344 262.631 54.4981 263.205 54.8489C264.098 55.423 268.882 55.8376 270.476 55.4868C271.242 55.3273 271.72 54.9765 272.007 54.3706C272.294 53.7966 272.772 53.4139 273.378 53.2863C273.889 53.1906 274.271 53.0312 274.176 52.9674C274.112 52.9036 272.709 52.6166 271.082 52.3934C267.383 51.8193 260.781 51.8512 256.795 52.4253ZM259.314 65.2772C258.071 65.6918 257.561 65.9788 257.592 66.3615C257.624 66.6485 257.624 66.9036 257.592 66.9036C257.592 66.9036 256.349 67.1269 254.85 67.382C251.948 67.8922 243.05 68.0198 244.166 67.5414C244.517 67.382 245.283 67.2544 245.857 67.2544C247.228 67.2225 246.877 66.5847 245.474 66.5847C244.23 66.5847 236.927 67.956 234.472 68.6576C233.483 68.9446 232.399 69.4549 232.048 69.7738C231.697 70.0608 230.772 70.4116 229.975 70.5073C228.317 70.7305 224.554 70.4116 224.554 70.0927C224.554 69.9651 225 69.6781 225.574 69.423C228.731 68.1155 221.524 69.6781 215.305 71.6235C213.647 72.1656 211.223 72.8991 209.98 73.2818C208.704 73.6326 207.652 74.1109 207.652 74.2704C207.652 74.4617 207.843 74.5574 208.066 74.4617C208.321 74.3661 210.139 74.2066 212.148 74.1109C215.688 73.8877 215.752 73.9196 215.018 74.4617C214.604 74.7806 213.743 75.5141 213.105 76.12C212.467 76.6941 211.447 77.4276 210.841 77.7465C209.724 78.3205 207.428 78.8945 206.918 78.767C206.791 78.7351 205.547 78.9902 204.144 79.341C202.772 79.6918 201.401 79.9788 201.082 79.9788C200.572 79.9788 200.572 79.9469 201.082 79.3729C201.624 78.767 201.592 78.767 200.54 78.8626C199.456 78.9583 194.034 81.0631 193.46 81.6052C192.95 82.0836 193.779 81.9241 196.171 81.0631C197.447 80.6166 198.531 80.2977 198.595 80.3934C198.882 80.6485 196.043 82.1155 191.228 84.2203C188.613 85.3683 184.818 87.0267 182.841 87.9196C179.492 89.4185 176.144 90.5984 173.018 91.4276C170.945 91.9697 169.574 93.054 169.447 94.234C169.319 95.6053 168.043 96.6576 163.993 98.7624C161.538 100.07 160.517 100.803 159.975 101.633C159.592 102.27 158.954 103.068 158.572 103.387C158.221 103.737 157.902 104.248 157.902 104.535C157.902 104.854 157.105 105.587 156.084 106.289C154.011 107.628 152.8 108.649 152.8 109.063C152.8 109.637 153.533 109.223 156.786 106.767C159.784 104.503 161.41 103.705 161.41 104.439C161.41 104.598 160.868 105.141 160.23 105.715C159.56 106.289 159.21 106.735 159.433 106.767C159.656 106.767 160.995 105.651 162.462 104.248C165.173 101.664 166.8 100.58 167.724 100.772C168.107 100.867 167.82 101.154 166.863 101.633C166.066 102.047 164.631 103.195 163.611 104.184C161.474 106.289 159.21 108.234 156.148 110.594C154.936 111.551 153.405 112.762 152.768 113.336C151.556 114.389 150.344 114.931 149.993 114.612C149.898 114.485 150.79 113.368 152.034 112.125C154.458 109.637 154.235 109.541 151.492 111.933C150.503 112.762 149.61 113.464 149.483 113.464C149.164 113.464 149.26 111.87 149.61 111.2C150.025 110.498 145.911 112.986 144.444 114.357C143.934 114.803 143.551 114.995 143.551 114.803C143.551 114.07 142.818 114.421 140.171 116.334C136.95 118.694 135.866 119.077 137.843 117.227C139.661 115.505 143.551 112.794 146.421 111.264C147.601 110.626 150.121 109.063 152.034 107.788C154.809 105.906 155.638 105.172 156.371 103.897C156.882 103.004 157.2 102.302 157.137 102.302C157.041 102.302 155.574 103.387 153.884 104.726C151.907 106.257 150.631 107.054 150.312 106.926C149.993 106.799 149.26 107.277 148.271 108.266C147.442 109.095 146.74 109.637 146.74 109.51C146.74 109.031 149.674 105.077 151.333 103.323C152.194 102.43 152.736 101.664 152.544 101.664C152.353 101.664 150.854 102.557 149.228 103.642C147.091 105.045 144.38 107.469 139.565 112.188C135.897 115.792 132.358 119.109 131.752 119.555C131.146 119.97 128.69 122.234 126.33 124.562C121.897 128.963 118.453 131.929 115.583 133.747C113.638 135.022 110.289 136.553 110.449 136.106C110.512 135.947 111.469 134.512 112.585 132.917C114.339 130.43 114.754 130.015 115.36 130.175C116.125 130.366 118.071 128.293 124.544 120.321C128.818 115.059 132.294 111.264 135.961 107.883C139.565 104.535 140.745 103.897 137.97 106.767C136.918 107.851 136.344 108.617 136.695 108.425C137.492 108.011 138.831 106.576 141.128 103.674C142.116 102.398 143.615 100.899 144.444 100.357C145.337 99.7192 145.72 99.5597 145.401 99.9743C145.082 100.325 144.827 100.676 144.827 100.74C144.827 101.122 149.005 98.8262 150.567 97.5506C155.319 93.7556 161.984 89.9287 171.775 85.4002C175.283 83.7738 178.344 82.1793 178.599 81.8285C179.237 80.9674 182.617 78.7032 183.287 78.7032C183.734 78.7032 183.765 78.767 183.383 79.2134C183 79.6918 183.032 79.7237 183.734 79.4686C184.945 79.054 187.624 79.1178 187.784 79.5961C187.879 79.8513 186.572 80.6485 184.18 81.7328C182.139 82.7214 180.513 83.5825 180.608 83.6781C180.927 83.9652 185.775 82.4663 188.134 81.3501C189.665 80.6485 190.558 80.0107 190.749 79.5323C191.132 78.5437 199.902 72.9629 202.709 71.9424C205.611 70.89 210.171 69.6462 210.394 69.8695C210.49 69.9651 211.734 69.5506 213.137 68.9446C214.955 68.1793 215.816 67.956 216.103 68.1793C216.932 68.8809 220.185 68.8809 223.119 68.2111C224.713 67.8603 228.221 67.0631 230.932 66.4253C234.185 65.6918 237.023 65.2453 239.191 65.1496C241.009 65.054 242.604 64.9264 242.668 64.8307C242.763 64.7351 246.941 64.6713 251.948 64.7032C261.068 64.7351 261.068 64.7351 259.314 65.2772ZM281.957 68.4982C286.422 68.6895 293.31 69.0722 297.264 69.3273C303.993 69.8057 304.854 69.9332 311.488 71.5597C318.759 73.3137 320.577 73.8558 319.46 73.8877C318.28 73.9515 319.556 74.7806 321.916 75.4822C323.16 75.8649 325.52 76.6303 327.082 77.1405C328.677 77.6508 330.59 78.161 331.324 78.2248C332.982 78.3843 334.768 78.9264 335.788 79.5642C336.362 79.915 336.458 80.1064 336.171 80.4572C335.916 80.7761 336.075 80.9993 336.873 81.5096C338.021 82.2112 344.463 85.5597 345.164 85.8148C345.387 85.8786 345.515 86.038 345.419 86.1337C345.324 86.2294 344.367 86.1337 343.346 85.8786C340.731 85.2727 340.444 85.2727 341.305 86.038L342.071 86.6759L341.274 86.5164C340.827 86.4207 338.85 86.0062 336.841 85.5597C332.631 84.6349 332.536 84.6349 333.715 85.2727C334.194 85.5278 335.916 86.038 337.542 86.357C340.955 87.0904 343.825 88.1747 343.825 88.7488C343.825 88.9401 343.474 89.2909 343.028 89.4822C341.305 90.2795 333.492 87.8558 334.927 86.9629C335.533 86.6121 335.055 86.2294 333.301 85.751C332.504 85.5278 331.069 84.8581 330.112 84.2522C328.964 83.5506 327.529 83.0403 325.902 82.7214C324.531 82.4663 323.096 82.0836 322.713 81.8604C321.788 81.382 320.545 80.2658 320.545 79.915C320.545 79.7556 320.864 79.6599 321.278 79.7237C321.82 79.7875 321.948 79.6918 321.884 79.2134C321.788 78.6713 321.916 78.6394 323 78.7989L324.212 78.9902L323.287 78.48C322.777 78.2248 321.087 77.874 319.556 77.7465C316.59 77.5232 315.952 77.2362 315.633 76.0244C315.474 75.3866 314.772 75.0358 310.595 73.6645C307.916 72.7715 304.504 71.751 303.037 71.3683C299.911 70.5711 296.308 70.0927 296.308 70.4754C296.308 70.6029 296.499 70.7305 296.722 70.7305C296.946 70.7624 296.882 70.9219 296.531 71.177C296.021 71.5597 296.084 71.6235 297.169 71.8467C298.604 72.1018 300.613 72.8991 300.39 73.1223C300.326 73.218 297.679 72.931 294.554 72.4845C288.016 71.5597 287.187 71.5278 289.611 72.2932L291.365 72.8353L287.697 73.0585C282.595 73.3774 280.107 73.3455 276.727 72.931C273.251 72.5164 271.082 72.0061 271.274 71.6872C271.369 71.5278 272.485 71.3364 273.793 71.2089C275.579 71.0494 276.344 71.0813 277.046 71.464C277.811 71.8786 278.258 71.8786 279.342 71.5916C280.075 71.4002 280.681 71.1451 280.681 71.0175C280.681 70.89 278.991 70.4754 276.95 70.0927C269.392 68.6895 266.809 67.7647 271.305 68.0198C272.677 68.1155 277.492 68.3387 281.957 68.4982ZM101.966 158.589C100.977 160.79 99.8929 163.66 99.5421 164.904C98.7767 167.678 97.6605 169.974 95.8428 172.685C95.0774 173.769 94.5034 174.694 94.599 174.694C94.8542 174.694 93.738 178.043 92.1753 181.87C91.3462 183.974 90.4214 186.685 90.1343 187.865C89.4646 190.703 88.1252 193.542 86.3075 195.87C85.3507 197.113 84.6491 198.485 84.2027 199.952C83.4692 202.343 83.5649 203.045 84.394 201.578L84.9043 200.685L84.7129 202.28C84.4259 204.544 80.7904 218.767 80.4077 219.15C79.8974 219.66 80.025 218.703 80.7266 216.599C81.5557 214.207 81.3963 213.314 80.4715 215.1C80.0888 215.865 79.6742 216.471 79.5785 216.471C79.2915 216.471 79.7699 212.995 80.1844 212.102C80.599 211.145 80.1844 210.699 79.5785 211.496C79.1639 212.102 79.1321 212.07 79.0683 211.018C78.9407 208.435 79.8018 205.437 81.6833 201.833C82.3211 200.621 82.4168 200.685 82.3211 202.439C82.2892 203.045 82.353 203.46 82.4487 203.364C82.6719 203.141 84.5535 196.89 84.4259 196.794C84.3621 196.731 84.0751 197.209 83.7243 197.815C83.1184 198.963 82.7995 199.122 82.0979 198.676C81.779 198.485 82.1617 197.05 83.5649 192.84C85.4783 187.068 86.2437 185.346 87.8063 183.05C88.6993 181.774 89.656 181.264 89.656 182.093C89.6879 182.507 91.9521 177.341 92.3986 175.906C92.5899 175.204 92.5899 175.204 91.984 175.715C91.6332 176.034 91.1548 176.289 90.8678 176.289C90.1343 176.289 89.4646 177.245 88.8587 179.063C88.3485 180.658 87.7425 181.296 87.7425 180.307C87.7425 179.478 88.3804 178.106 90.3576 174.63C92.1116 171.537 92.3986 171.218 93.0364 171.378C93.8337 171.601 94.312 170.867 94.5034 169.081C94.6628 167.742 93.9612 167.838 92.9726 169.241C92.4624 169.942 91.9521 170.548 91.8564 170.548C91.41 170.548 94.1845 163.341 95.492 161.013C96.9271 158.494 97.533 158.047 98.394 158.908C98.8724 159.419 98.9681 159.387 99.5421 158.685C100.467 157.601 100.307 158.302 99.1913 160.28C98.6492 161.236 98.2984 162.065 98.3621 162.129C98.6492 162.416 100.084 160.375 101.456 157.76C102.923 154.89 103.369 154.188 103.592 154.412C103.688 154.475 102.923 156.357 101.966 158.589ZM77.697 219.341C77.9521 219.724 77.6013 222.243 77.2186 222.881C76.7084 223.646 76.5808 223.009 76.7721 220.999C76.9954 219.118 77.2505 218.64 77.697 219.341ZM73.0728 231.46C73.615 235.765 74.189 239.847 74.3484 240.548C74.6992 242.015 74.6992 249.223 74.3484 252.029C74.189 253.369 74.0933 251.997 74.0614 247.405C73.9977 238.986 73.5831 238.093 72.0204 243.1C71.574 244.503 70.8405 247.373 70.394 249.478C69.9156 251.583 69.4692 253.432 69.4054 253.624C68.8314 254.867 70.1708 236.977 70.9999 232.097C71.2551 230.63 71.3507 229.355 71.1913 229.227C71.0637 229.132 71.0637 227.952 71.1913 226.612C71.4145 224.38 71.7015 223.264 71.9566 223.551C72.0204 223.615 72.5307 227.186 73.0728 231.46ZM75.5922 265.487C75.7835 265.997 76.1662 267.369 76.4213 268.612C76.7084 269.824 77.3462 272.088 77.8564 273.587C78.845 276.457 79.5785 282.166 78.9088 281.751C78.7175 281.624 78.4942 280.89 78.4305 280.125C78.3348 279.296 77.8245 277.988 77.1867 277C76.2619 275.501 76.1343 275.054 76.1662 273.3C76.1981 271.865 76.1024 271.323 75.8473 271.419C75.6241 271.482 75.4327 271.993 75.369 272.535C75.2414 273.842 74.7949 273.842 74.5398 272.567C74.2847 271.227 74.2847 265.104 74.5717 264.849C74.9544 264.435 75.2414 264.626 75.5922 265.487ZM62.8359 285.833L62.8359 286.471L62.5489 285.833C62.3894 285.482 62.2619 284.972 62.2619 284.717C62.23 284.303 62.2619 284.303 62.5489 284.717C62.7083 284.972 62.8359 285.482 62.8359 285.833ZM80.5352 306.275C80.8223 306.403 81.0455 306.849 81.0455 307.359C81.0455 308.763 80.5034 308.763 80.1526 307.359C79.9931 306.658 79.8974 306.084 79.9293 306.084C79.9931 306.084 80.2482 306.18 80.5352 306.275ZM85.4464 318.904C86.5307 321.232 88.189 324.995 89.1776 327.291C90.1662 329.555 91.8883 333.223 93.0364 335.391C94.1526 337.56 95.0774 339.505 95.0774 339.76C95.0774 340.813 94.4396 339.984 92.5261 336.508C91.3781 334.467 90.4214 332.936 90.3895 333.095C90.0068 334.243 96.959 346.202 98.0432 346.298C98.2665 346.33 98.6173 346.362 98.8405 346.394C99.0637 346.394 99.6697 347.159 100.18 348.084C100.977 349.455 101.041 349.742 100.626 349.902C100.339 349.997 99.8929 349.965 99.6059 349.806C98.7767 349.36 95.6195 345.947 94.7904 344.576C93.6423 342.726 93.6423 343.396 94.7585 345.628C95.3006 346.713 95.5877 347.51 95.3963 347.382C94.9179 347.095 93.8337 344.831 91.0273 338.485C88.2528 332.139 87.3599 330.002 87.5831 330.002C87.6788 330.002 88.0296 330.576 88.3804 331.309C88.763 332.043 89.1457 332.553 89.2095 332.457C89.3052 332.362 88.2209 329.524 86.8177 326.111C84.681 320.945 82.9589 315.938 82.9589 314.949C82.9589 313.993 83.7562 315.268 85.4464 318.904ZM128.052 368.239C128.563 368.749 128.786 369.227 128.626 369.355C128.276 369.578 126.33 368.079 126.33 367.601C126.33 367.027 127.191 367.346 128.052 368.239Z" fill="#3296fa" fill-rule="nonzero" opacity="1" stroke="none"></path>
<path d="M203.984 75.9925C202.677 76.5665 203.888 76.5984 205.419 75.9925C206.408 75.6098 206.44 75.546 205.738 75.546C205.292 75.546 204.526 75.7374 203.984 75.9925Z" fill="#3296fa" fill-rule="nonzero" opacity="1" stroke="none"></path>
<path d="M183.351 83.9652C181.597 84.89 181.182 85.4002 182.203 85.4002C182.617 85.4002 183.51 84.89 184.212 84.2841C185.711 83.0084 185.424 82.8809 183.351 83.9652Z" fill="#3296fa" fill-rule="nonzero" opacity="1" stroke="none"></path>
<path d="M172.891 88.6212C171.232 89.2909 169.574 89.8649 169.223 89.8649C168.649 89.8649 160.453 93.8832 160.453 94.1702C160.453 94.234 160.74 94.2021 161.091 94.1064C162.271 93.7875 161.729 94.521 159.56 96.1793C157.36 97.8376 156.69 98.0927 156.116 97.5187C155.893 97.2955 155.128 97.6781 153.82 98.6668C152.736 99.464 151.843 100.198 151.843 100.261C151.843 100.485 153.055 99.7829 153.278 99.4321C153.629 98.8581 154.107 99.1132 153.916 99.751C153.629 100.612 153.82 100.58 155.574 99.3046C157.775 97.7419 158.923 97.2317 159.816 97.3911C160.358 97.5187 161.282 97.136 162.749 96.275C163.929 95.5415 164.95 94.9674 165.046 94.9674C165.141 94.9674 165.907 94.4891 166.736 93.915C167.597 93.3091 169.861 91.874 171.806 90.726C177.834 87.1223 178.153 86.4526 172.891 88.6212Z" fill="#3296fa" fill-rule="nonzero" opacity="1" stroke="none"></path>
<path d="M128.403 119.428C127.128 120.097 126.011 121.118 126.011 121.66C126.011 122.393 126.458 122.138 128.084 120.48C129.806 118.726 129.806 118.662 128.403 119.428Z" fill="#3296fa" fill-rule="nonzero" opacity="1" stroke="none"></path>
<path d="M118.868 129.473C118.421 130.047 118.134 130.557 118.23 130.653C118.358 130.813 119.091 129.983 119.665 128.995C120.175 128.102 119.729 128.357 118.868 129.473Z" fill="#3296fa" fill-rule="nonzero" opacity="1" stroke="none"></path>
<path d="M282.276 72.0061C282.276 72.1656 282.882 72.325 283.647 72.2932C284.795 72.2613 284.859 72.2294 284.189 72.0061C283.041 71.6235 282.276 71.6235 282.276 72.0061Z" fill="#3296fa" fill-rule="nonzero" opacity="1" stroke="none"></path>
<path d="M333.141 82.4025C333.811 83.1041 336.713 84.3159 337.032 83.997C337.16 83.9014 332.886 81.5733 332.567 81.5733C332.44 81.5733 332.727 81.956 333.141 82.4025Z" fill="#3296fa" fill-rule="nonzero" opacity="1" stroke="none"></path>
<path d="M96.0979 167.423C95.205 168.858 94.312 171.186 94.5672 171.409C94.6628 171.505 95.2687 170.485 95.9066 169.145C97.0865 166.53 97.2141 165.637 96.0979 167.423Z" fill="#3296fa" fill-rule="nonzero" opacity="1" stroke="none"></path>
<path d="M282.595 54.0198C282.148 54.243 280.841 54.53 279.693 54.6576C278.513 54.7533 277.365 54.9765 277.141 55.136C276.217 55.71 277.301 55.8057 280.203 55.423C281.861 55.1997 283.743 55.1041 284.349 55.1997C285.592 55.3911 285.561 55.136 284.253 54.2111C283.52 53.7009 283.296 53.669 282.595 54.0198Z" fill="#3296fa" fill-rule="nonzero" opacity="1" stroke="none"></path>
<path d="M219.451 55.7419C206.089 58.0061 196.49 60.1109 196.49 60.8125C196.49 60.9401 196.809 61.2271 197.223 61.3865C197.893 61.7054 197.829 61.7692 196.171 62.5665C194.002 63.587 193.46 63.6189 193.939 62.7897C194.768 61.2271 191.898 61.833 189.538 63.7146C188.677 64.4162 187.847 64.9902 187.72 64.9902C187.401 64.9902 183.096 67.8285 183.096 68.0517C183.096 68.243 184.084 67.7328 185.519 66.7442C186.667 65.9788 189.984 65.0859 190.367 65.4685C190.494 65.5961 190.08 66.1064 189.474 66.6166C188.868 67.095 188.485 67.5414 188.613 67.5414C189.091 67.5414 190.718 66.5847 190.973 66.1383C191.1 65.915 192.535 65.3091 194.098 64.8307C195.693 64.3843 198.563 63.1405 200.476 62.12C205.547 59.4731 210.904 57.8786 213.711 58.1975C214.827 58.325 216.039 58.0699 219.132 57.0494C223.342 55.6781 226.563 55.1041 226.914 55.6781C227.009 55.8694 226.499 56.0927 225.606 56.2202C222.768 56.6348 216.262 58.9628 216.262 59.5369C216.262 59.6644 217.57 59.4412 219.196 59.0266C220.822 58.612 224.075 58.038 226.467 57.751C228.827 57.464 230.836 57.177 230.9 57.1132C230.996 57.0494 230.74 56.7943 230.358 56.5073C229.465 55.8694 229.465 55.5505 230.485 54.6257C230.996 54.1473 231.155 53.8284 230.9 53.8603C230.645 53.8603 225.51 54.7214 219.451 55.7419Z" fill="#3296fa" fill-rule="nonzero" opacity="1" stroke="none"></path>
<path d="M237.31 54.4663C236.959 54.6895 237.15 54.7852 238.043 54.7852C238.681 54.7852 239.223 54.6257 239.223 54.4663C239.223 54.0517 237.948 54.0517 237.31 54.4663Z" fill="#3296fa" fill-rule="nonzero" opacity="1" stroke="none"></path>
<path d="M206.376 60.8444C206.121 61.0038 206.057 61.1633 206.216 61.1633C206.408 61.1633 206.759 61.0038 207.014 60.8444C207.269 60.6849 207.365 60.5255 207.173 60.5255C207.014 60.5255 206.631 60.6849 206.376 60.8444Z" fill="#3296fa" fill-rule="nonzero" opacity="1" stroke="none"></path>
<path d="M254.371 75.546C254.021 75.6736 253.16 75.8011 252.49 75.8011C251.533 75.833 251.31 75.9287 251.565 76.1838C251.98 76.5984 255.488 76.2795 255.488 75.833C255.488 75.3866 255.041 75.259 254.371 75.546Z" fill="#3296fa" fill-rule="nonzero" opacity="1" stroke="none"></path>
<path d="M317.611 85.3046C317.834 85.4002 318.121 85.3683 318.217 85.2727C318.344 85.177 318.153 85.0813 317.802 85.1132C317.451 85.1132 317.356 85.2089 317.611 85.3046Z" fill="#3296fa" fill-rule="nonzero" opacity="1" stroke="none"></path>
<path d="M206.185 86.4207L205.579 87.1542L206.312 86.5483C206.982 85.9743 207.173 85.7191 206.918 85.7191C206.854 85.7191 206.535 86.038 206.185 86.4207Z" fill="#3296fa" fill-rule="nonzero" opacity="1" stroke="none"></path>
<path d="M317.005 87.9515C317.802 88.3023 318.663 88.5574 318.918 88.4936C319.524 88.3342 317.993 87.6645 316.558 87.4412C315.761 87.3137 315.825 87.4093 317.005 87.9515Z" fill="#3296fa" fill-rule="nonzero" opacity="1" stroke="none"></path>
<path d="M131.847 96.275C130.125 97.7738 129.583 98.603 130.986 97.6144C132.039 96.849 133.888 94.9674 133.569 94.9674C133.474 94.9674 132.708 95.5734 131.847 96.275Z" fill="#3296fa" fill-rule="nonzero" opacity="1" stroke="none"></path>
<path d="M385.602 97.0403C385.602 97.1998 388.344 99.1132 388.599 99.1132C389.142 99.1132 388.631 98.5392 387.388 97.7419C386.048 96.9128 385.602 96.7214 385.602 97.0403Z" fill="#3296fa" fill-rule="nonzero" opacity="1" stroke="none"></path>
<path d="M127.446 99.7829C125.661 101.601 126.362 101.409 128.563 99.464C129.424 98.6987 129.806 98.1565 129.519 98.1565C129.232 98.1565 128.308 98.89 127.446 99.7829Z" fill="#3296fa" fill-rule="nonzero" opacity="1" stroke="none"></path>
<path d="M110.194 115.473C107.897 117.961 105.601 120.512 105.091 121.118C104.294 122.138 104.262 122.17 104.964 121.596C105.41 121.245 106.494 120.289 107.419 119.459C108.312 118.598 109.364 117.929 109.683 117.929C110.481 117.929 112.266 115.76 113.542 113.177C114.116 112.093 114.531 111.136 114.467 111.072C114.403 111.008 112.49 112.986 110.194 115.473Z" fill="#3296fa" fill-rule="nonzero" opacity="1" stroke="none"></path>
<path d="M133.41 127.049C132.007 128.261 131.752 128.772 132.581 128.772C132.932 128.772 133.027 128.963 132.836 129.473C132.613 130.175 132.645 130.175 133.378 129.633C134.462 128.835 136.089 128.134 136.822 128.134C137.46 128.134 137.97 127.305 137.524 127.018C137.364 126.954 136.599 127.113 135.77 127.4C134.08 128.038 133.697 127.847 134.431 126.699C135.132 125.646 134.973 125.678 133.41 127.049Z" fill="#3296fa" fill-rule="nonzero" opacity="1" stroke="none"></path>
<path d="M97.9157 129.186C96.1617 131.387 96.3211 131.737 98.0751 129.569C98.7448 128.772 99.1594 128.134 99 128.134C98.8724 128.134 98.3621 128.612 97.9157 129.186Z" fill="#3296fa" fill-rule="nonzero" opacity="1" stroke="none"></path>
<path d="M89.2095 147.906C88.763 148.608 88.3804 149.214 88.3804 149.309C88.3804 149.373 88.8906 149.182 89.4965 148.895C90.3576 148.512 90.5808 148.193 90.6127 147.491C90.6127 146.28 90.1981 146.407 89.2095 147.906Z" fill="#3296fa" fill-rule="nonzero" opacity="1" stroke="none"></path>
<path d="M115.073 151.478C112.33 156.038 111.661 157.409 111.661 158.334C111.661 159.227 112.522 158.175 114.882 154.412C116.253 152.179 117.082 150.585 116.954 150.266C116.859 150.011 117.05 149.214 117.433 148.48C117.784 147.778 118.007 147.141 117.943 147.077C117.879 146.981 116.572 148.99 115.073 151.478Z" fill="#3296fa" fill-rule="nonzero" opacity="1" stroke="none"></path>
<path d="M432.353 173.227C432.672 174.024 432.736 174.535 432.513 174.662C432.322 174.79 432.64 175.396 433.278 176.129C433.852 176.831 434.426 177.309 434.554 177.182C434.809 176.927 433.342 173.929 432.385 172.717C431.875 172.015 431.843 172.015 432.353 173.227Z" fill="#3296fa" fill-rule="nonzero" opacity="1" stroke="none"></path>
<path d="M441.123 174.535C441.187 174.694 441.697 175.715 442.24 176.767C444.089 180.339 447.725 190.321 447.183 190.321C446.832 190.321 445.556 188.886 445.556 188.503C445.556 187.259 442.208 177.628 441.857 177.947C441.825 178.011 442.399 180.147 443.164 182.667C444.695 187.706 445.173 190.002 444.663 190.002C444.504 190.002 444.025 189.173 443.611 188.152C443.196 187.163 442.814 186.558 442.75 186.813C442.654 187.419 446.258 194.084 446.449 193.573C446.513 193.35 446.353 192.521 446.066 191.692C445.46 189.938 445.429 189.555 445.907 189.874C446.417 190.193 447.916 193.573 448.713 196.22C449.224 197.943 449.542 198.548 450.18 198.835C450.627 199.027 450.978 199.091 450.978 198.931C450.978 198.804 450.563 197.655 450.021 196.38C449.511 195.104 449.064 193.924 449.064 193.733C449.064 192.999 450.053 194.339 450.627 195.933C450.978 196.858 451.552 197.911 451.902 198.261C452.221 198.58 452.572 199.059 452.636 199.282C452.732 199.537 452.923 199.633 453.05 199.505C453.943 198.676 447.406 183.464 443.707 177.66C442.271 175.428 440.709 173.546 441.123 174.535Z" fill="#3296fa" fill-rule="nonzero" opacity="1" stroke="none"></path>
<path d="M436.308 178.33C436.308 178.681 438.955 183.337 439.082 183.209C439.274 182.986 436.85 178.202 436.563 178.202C436.435 178.202 436.308 178.266 436.308 178.33Z" fill="#3296fa" fill-rule="nonzero" opacity="1" stroke="none"></path>
<path d="M437.137 182.667C437.328 183.783 437.743 184.517 438.03 184.23C438.126 184.166 437.902 183.528 437.552 182.826L436.946 181.551L437.137 182.667Z" fill="#3296fa" fill-rule="nonzero" opacity="1" stroke="none"></path>
<path d="M430.121 191.373C430.217 191.692 430.408 191.851 430.504 191.756C430.599 191.66 430.504 191.405 430.281 191.182C429.962 190.895 429.93 190.927 430.121 191.373Z" fill="#3296fa" fill-rule="nonzero" opacity="1" stroke="none"></path>
<path d="M434.299 193.478C434.937 194.562 435.511 195.359 435.606 195.296C435.829 195.072 433.948 191.819 433.533 191.66C433.31 191.596 433.661 192.425 434.299 193.478Z" fill="#3296fa" fill-rule="nonzero" opacity="1" stroke="none"></path>
<path d="M431.524 192.425C431.524 193.031 432.29 194.626 436.021 201.801C436.818 203.3 437.615 204.927 437.839 205.469C438.189 206.362 438.189 206.298 438.094 204.671C437.998 203.715 437.775 202.152 437.583 201.227C437.296 199.92 437.073 199.569 436.595 199.569C436.148 199.569 435.574 198.74 434.363 196.284C433.501 194.498 432.481 192.744 432.13 192.394C431.524 191.788 431.524 191.788 431.524 192.425Z" fill="#3296fa" fill-rule="nonzero" opacity="1" stroke="none"></path>
<path d="M444.281 195.009C444.281 195.614 446.864 202.822 447.565 204.257C448.394 205.915 449.925 212.708 450.244 216.312C450.467 218.735 451.456 220.904 452.03 220.33C452.221 220.138 452.668 219.979 452.987 219.979C453.625 219.979 453.625 220.17 452.987 216.63C452.668 215.036 453.306 216.025 454.645 219.309C455.347 221.031 456.08 222.435 456.24 222.466C456.877 222.562 456.558 217.013 455.634 212.421C454.804 208.211 454.677 207.924 454.135 208.275C453.72 208.53 453.529 209.104 453.465 210.38L453.369 212.134L452.158 210.284C451.169 208.817 450.818 207.797 450.18 204.703C449.479 201.291 448.299 198.325 447.438 197.815C446.991 197.528 447.087 198.708 447.629 199.984C448.203 201.355 448.267 202.088 447.789 201.61C447.597 201.419 446.896 199.856 446.258 198.134C445.588 196.412 444.886 194.945 444.663 194.849C444.472 194.785 444.281 194.849 444.281 195.009Z" fill="#3296fa" fill-rule="nonzero" opacity="1" stroke="none"></path>
<path d="M58.3074 218.927C58.2436 219.086 58.0842 219.724 57.9566 220.362C57.7653 221.35 57.8291 221.574 58.2436 221.574C58.5944 221.574 58.722 221.223 58.722 220.138C58.722 218.767 58.5944 218.416 58.3074 218.927Z" fill="#3296fa" fill-rule="nonzero" opacity="1" stroke="none"></path>
<path d="M452.445 227.059C452.476 230.758 453.082 233.82 454.007 234.936C455.155 236.307 455.41 240.07 454.358 240.07C454.071 240.07 454.071 240.867 454.422 243.419C454.709 245.364 455.028 246.671 455.219 246.544C455.378 246.448 455.442 245.747 455.315 244.981C455.219 244.152 455.251 243.578 455.442 243.578C455.825 243.578 455.761 242.94 456.048 248.617C456.24 251.838 456.463 253.624 456.718 253.879C457.037 254.198 457.069 253.719 456.877 251.551C456.75 250.052 456.622 244.981 456.558 240.293C456.431 230.79 456.176 229.259 454.517 228.015C453.943 227.601 453.401 226.74 453.05 225.719C452.763 224.858 452.508 224.125 452.476 224.125C452.445 224.125 452.413 225.464 452.445 227.059Z" fill="#3296fa" fill-rule="nonzero" opacity="1" stroke="none"></path>
<path d="M84.4578 234.553C84.3621 234.681 84.2027 236.148 84.0751 237.774C83.8838 239.879 83.9475 240.708 84.2027 240.708C84.4259 240.708 84.5535 239.974 84.5854 238.699L84.6173 236.722L85.0637 237.997L85.5102 239.273L85.3507 237.072C85.2232 234.999 84.8405 233.947 84.4578 234.553Z" fill="#3296fa" fill-rule="nonzero" opacity="1" stroke="none"></path>
<path d="M443.196 273.013C443.037 275.086 443.005 276.84 443.069 276.936C443.388 277.255 443.898 271.769 443.675 270.526C443.483 269.505 443.388 269.984 443.196 273.013Z" fill="#3296fa" fill-rule="nonzero" opacity="1" stroke="none"></path>
<path d="M55.9794 274.672C56.2664 276.362 56.8405 278.116 57.0318 277.892C57.255 277.669 56.4578 274.097 56.0751 273.715C55.8837 273.523 55.8518 273.842 55.9794 274.672Z" fill="#3296fa" fill-rule="nonzero" opacity="1" stroke="none"></path>
<path d="M76.2619 343.906C76.2619 344.098 76.7721 345.979 77.3781 348.052C78.5261 351.911 81.5876 358.608 82.5444 359.405C82.8633 359.628 82.7038 359.182 82.1936 358.289C81.1731 356.567 81.2368 355.961 82.2892 357.3C83.3416 358.64 83.0546 357.811 81.492 354.877C80.6628 353.378 79.1639 350.221 78.1434 347.861C77.1229 345.501 76.2619 343.715 76.2619 343.906Z" fill="#3296fa" fill-rule="nonzero" opacity="1" stroke="none"></path>
<path d="M102.412 344.927C102.412 345.15 102.635 345.852 102.891 346.489C103.433 347.797 103.497 348.307 103.05 348.02C102.38 347.606 102.763 348.498 104.102 350.412C104.836 351.496 105.601 352.612 105.761 352.899C105.952 353.186 106.558 354.143 107.1 355.004C109.046 357.97 108.854 359.628 106.813 358.002C105.091 356.663 105.538 357.396 108.44 360.745C110.927 363.583 112.043 364.348 109.843 361.669C107.292 358.576 107.323 358.576 113.893 363.615C117.656 366.485 118.9 367.186 117.528 365.688C117.21 365.305 116.093 364.348 115.073 363.583C114.052 362.786 113.287 361.988 113.351 361.797C113.415 361.606 112.649 360.33 111.661 358.991C110.64 357.619 108.28 353.952 106.399 350.827C102.699 344.767 102.412 344.321 102.412 344.927Z" fill="#3296fa" fill-rule="nonzero" opacity="1" stroke="none"></path>
<path d="M86.4669 360.139C86.4669 360.234 86.6901 360.84 86.9453 361.478C87.6469 363.168 87.5193 363.487 86.6583 362.116C85.6378 360.457 85.5421 360.426 85.6696 361.701C85.861 363.87 88.6036 370.184 90.2619 372.385L91.0911 373.501L91.2505 372.289L91.41 371.077L94.7585 375.127C97.0546 377.87 98.4259 379.879 99.1275 381.442C100.339 384.12 100.467 384.854 99.6378 384.184C98.4897 383.227 99.8291 385.045 101.934 387.341C103.273 388.776 105.442 390.53 107.929 392.221C110.066 393.656 112.617 395.505 113.574 396.303C115.009 397.546 115.2 397.61 114.626 396.813C114.244 396.271 113.51 395.41 112.936 394.899C111.692 393.719 111.118 392.763 111.788 393.018C112.139 393.145 112.203 393.018 112.107 392.444C111.948 391.806 112.075 391.87 112.841 392.827C113.319 393.432 114.626 394.963 115.743 396.207C117.624 398.407 118.294 399.428 117.241 398.567C116.986 398.344 116.763 398.248 116.763 398.344C116.763 398.631 121.674 403.287 124.576 405.71C127.319 408.038 128.499 408.772 127.574 407.592C127.064 406.954 126.904 406.827 130.827 409.665C133.251 411.419 138.321 414.098 138.608 413.811C138.831 413.619 136.822 412.344 132.708 410.048C128.276 407.592 124.991 404.977 122.312 401.852C120.718 400.002 120.654 399.587 121.993 400.193C123.014 400.672 123.301 400.448 122.854 399.587C122.503 398.95 116.317 393.783 115.902 393.783C115.774 393.783 116.093 394.198 116.604 394.74C117.114 395.25 117.401 395.792 117.273 395.92C117.178 396.048 115.392 394.389 113.319 392.253C111.278 390.116 109.364 388.362 109.077 388.362C108.503 388.362 102.38 379.688 99.4783 374.713C98.4259 372.927 97.4373 371.46 97.2779 371.46C96.8633 371.46 96.9271 371.683 97.5649 372.672L98.107 373.533L97.1184 372.831C95.5239 371.715 93.8974 369.706 92.8451 367.633C91.6651 365.273 90.7084 364.922 91.5694 367.155C92.1753 368.749 91.3143 367.601 89.0182 363.806C86.8815 360.266 86.4669 359.692 86.4669 360.139Z" fill="#3296fa" fill-rule="nonzero" opacity="1" stroke="none"></path>
<path d="M118.932 368.303C119.091 369.355 119.187 369.419 119.793 368.781C120.143 368.43 120.175 368.271 119.856 368.047C118.932 367.314 118.804 367.346 118.932 368.303Z" fill="#3296fa" fill-rule="nonzero" opacity="1" stroke="none"></path>
<path d="M126.362 372.799C127.255 373.565 128.116 375.669 127.765 376.211C127.67 376.403 128.116 376.817 128.786 377.168C129.456 377.487 130.508 378.316 131.114 378.922C132.166 380.038 132.198 380.07 131.433 380.006C129.105 379.751 131.465 383.323 135.738 386.512C142.786 391.774 150.472 395.76 164.28 401.341C168.522 403.063 170.499 404.02 171.296 404.786C172.699 406.125 176.686 408.612 181.661 411.227C186.03 413.524 185.711 413.843 180.704 412.152C178.95 411.546 177.451 411.132 177.387 411.196C177.324 411.259 179.046 412.152 181.214 413.205L185.169 415.086L186.157 414.48C186.699 414.13 187.401 413.874 187.688 413.874C188.453 413.874 192.663 416.043 192.663 416.458C192.663 416.649 192.472 416.745 192.248 416.649C191.993 416.553 190.973 416.394 189.92 416.266L188.039 416.075L188.836 416.713C189.857 417.542 192.312 418.307 194.544 418.499L196.33 418.658L195.023 418.052C193.396 417.319 193.173 416.968 193.683 416.139C194.194 415.309 193.715 414.767 191.419 413.683C190.431 413.205 189.793 412.758 189.984 412.694C191.005 412.344 199.775 415.246 201.816 416.617C202.262 416.872 202.517 417.319 202.421 417.542C202.198 418.148 204.909 419.136 209.406 420.125C211.351 420.54 214.221 421.177 215.784 421.528C217.378 421.879 219.674 422.676 220.918 423.282C222.64 424.143 223.597 424.398 225.064 424.43C227.456 424.494 230.677 423.824 230.517 423.346C230.453 423.123 229.401 422.644 228.189 422.262C226.69 421.815 226.276 421.56 226.882 421.56C227.36 421.528 227.743 421.369 227.743 421.209C227.743 420.827 225.606 420.795 225.447 421.177C225.415 421.337 223.852 420.954 222.002 420.38C218.112 419.136 218.463 419.2 218.558 419.679C218.718 420.476 212.499 419.806 209.884 418.754C209.533 418.626 209.629 418.499 210.203 418.339C210.873 418.148 210.681 418.052 209.087 417.733C205.866 417.095 201.879 415.788 201.72 415.309C201.624 415.054 200.731 414.704 199.743 414.512C198.722 414.321 196.426 413.715 194.576 413.173C192.727 412.631 190.973 412.12 190.686 412.057C189.888 411.833 189.984 411.323 190.845 411.291C191.228 411.291 190.303 410.877 188.804 410.366C187.273 409.856 184.626 408.74 182.904 407.879C179.747 406.284 174.103 402.745 173.72 402.107C173.592 401.947 173.305 401.852 173.05 401.947C172.125 402.298 168.107 399.268 168.107 398.248C168.107 397.929 167.82 397.578 167.469 397.451C166.608 397.164 163.579 394.899 158.699 390.913C155.064 387.915 151.269 385.173 150.727 385.173C150.631 385.173 148.367 384.152 145.688 382.909C140.362 380.421 135.068 377.583 129.679 374.362C125.756 372.002 125.15 371.715 126.362 372.799Z" fill="#3296fa" fill-rule="nonzero" opacity="1" stroke="none"></path>
<path d="M401.101 399.077C399.41 400.927 398.294 401.756 398.868 400.704C399.41 399.779 398.007 401.469 396.572 403.51C394.722 406.157 395.105 405.902 400.048 401.278C401.93 399.524 403.46 397.929 403.46 397.706C403.46 396.845 402.886 397.164 401.101 399.077Z" fill="#3296fa" fill-rule="nonzero" opacity="1" stroke="none"></path>
<path d="M153.916 399.173L152.959 399.364L154.235 400.321C154.936 400.863 156.18 401.947 157.009 402.776C157.838 403.574 159.433 404.69 160.517 405.2C161.633 405.742 163.674 406.699 165.077 407.369C166.481 408.007 167.437 408.612 167.214 408.708C166.991 408.772 166.385 408.644 165.843 408.453C163.547 407.496 164.95 408.581 169.287 411.068C177.228 415.692 180.8 417.255 181.565 416.489C181.98 416.075 184.435 417.223 186.285 418.658C186.891 419.136 188.358 419.742 189.506 420.029C190.686 420.316 193.556 421.305 195.884 422.198C208.449 426.981 210.554 427.619 211.797 426.95C212.18 426.758 212.435 426.535 212.371 426.471C212.339 426.407 210.33 425.897 207.97 425.355C202.071 423.92 202.166 423.952 202.613 422.963C203.187 421.72 202.645 421.464 199.009 421.369C194.704 421.273 191.961 420.348 183.191 416.107C177.802 413.492 176.431 412.694 175.474 411.578C174.836 410.845 174.23 410.016 174.103 409.697C173.879 409.091 167.437 405.838 165.237 405.232C163.898 404.849 157.998 401.405 155.829 399.747C155.128 399.173 154.617 399.045 153.916 399.173Z" fill="#3296fa" fill-rule="nonzero" opacity="1" stroke="none"></path>
<path d="M120.59 404.849C123.333 407.305 126.713 410.717 128.052 412.407C128.818 413.396 130.986 414.735 131.305 414.417C131.337 414.385 130.476 413.587 129.328 412.663C128.212 411.738 127.287 410.845 127.287 410.685C127.287 410.526 127.606 410.366 127.989 410.303C128.595 410.239 128.148 409.729 125.374 407.241C123.556 405.615 121.897 404.339 121.706 404.403C121.547 404.467 120.781 404.116 120.048 403.637C117.847 402.107 118.071 402.585 120.59 404.849Z" fill="#3296fa" fill-rule="nonzero" opacity="1" stroke="none"></path>
<path d="M392.745 405.328C391.087 406.54 387.834 409.856 387.834 410.303C387.834 410.526 388.057 411.164 388.344 411.674C388.918 412.79 389.237 412.663 390.768 410.558C391.916 408.995 391.948 408.325 390.864 408.517C390.417 408.612 390.066 408.581 390.066 408.421C390.066 408.102 391.629 406.986 392.458 406.731C393.128 406.54 394.467 404.626 393.957 404.626C393.798 404.626 393.255 404.945 392.745 405.328Z" fill="#3296fa" fill-rule="nonzero" opacity="1" stroke="none"></path>
<path d="M162.112 409.473C162.59 409.888 163.866 410.685 164.982 411.259C166.768 412.216 166.895 412.248 166.034 411.514C165.524 411.068 164.216 410.239 163.164 409.697C161.538 408.868 161.378 408.836 162.112 409.473Z" fill="#3296fa" fill-rule="nonzero" opacity="1" stroke="none"></path>
<path d="M132.453 415.533C132.549 415.756 133.41 416.585 134.431 417.35C135.419 418.084 137.62 419.997 139.31 421.56C141.223 423.346 142.467 424.303 142.595 424.079C142.913 423.569 144.636 424.494 150.057 428.066C152.544 429.692 156.403 431.988 158.699 433.2C161.761 434.795 162.654 435.401 162.239 435.56C161.793 435.72 162.462 436.134 164.727 437.091C166.449 437.824 168.107 438.43 168.426 438.43C168.745 438.43 171.296 439.546 174.103 440.918C176.909 442.321 180.417 443.915 181.884 444.489C183.319 445.064 185.105 445.797 185.806 446.084C188.294 447.168 200.891 451.218 206.599 452.781C220.121 456.448 236.417 459.064 249.269 459.638C251.565 459.733 255.009 459.893 256.923 459.988C260.75 460.148 261.1 459.701 257.401 459.319C256.221 459.191 255.073 458.968 254.818 458.808C254.563 458.649 254.531 458.521 254.69 458.521C255.583 458.489 253.893 457.884 252.904 457.884C250.959 457.884 248.791 457.501 248.791 457.15C248.791 456.959 250.353 456.895 253.255 457.023C255.838 457.118 257.72 457.054 257.72 456.895C257.72 456.736 257.592 456.608 257.433 456.608C257.273 456.608 256.699 456.225 256.157 455.779C254.69 454.535 251.374 454.407 245.889 455.332C242.699 455.874 240.818 456.002 238.49 455.906C236.8 455.811 235.301 455.651 235.173 455.524C235.046 455.428 235.237 455.141 235.556 454.886C236.13 454.471 236.098 454.407 234.918 454.089C234.217 453.897 232.526 453.578 231.155 453.387C229.784 453.228 227.488 452.717 226.052 452.239C224.075 451.633 223.055 451.474 221.811 451.601C220.376 451.761 220.121 451.697 219.993 451.155C219.866 450.708 219.547 450.549 218.75 450.549C217.474 450.549 207.811 448.603 204.462 447.679C203.155 447.328 200.189 446.53 197.925 445.925C195.629 445.319 191.483 443.947 188.677 442.863C183.765 440.982 181.82 440.12 183.255 440.471C183.606 440.535 184.531 440.726 185.328 440.822C187.879 441.205 186.349 440.439 182.49 439.387C178.185 438.239 177.483 437.92 177.961 437.346C178.248 437.027 177.419 436.644 174.23 435.56C171.998 434.795 168.171 433.423 165.747 432.467C163.323 431.542 161.219 430.84 161.123 430.968C161.027 431.063 161.506 431.638 162.207 432.243C162.909 432.817 163.355 433.328 163.196 433.328C162.271 433.328 154.745 428.417 155.128 428.034C155.191 427.938 155.861 428.13 156.595 428.417C157.328 428.704 158.03 428.863 158.125 428.735C158.476 428.385 158.062 428.225 154.554 427.269C152.098 426.631 150.886 426.12 150.28 425.546C148.462 423.729 150.503 424.207 157.073 427.141C163.993 430.266 162.112 428.735 154.426 425.004C151.907 423.792 148.845 422.134 147.665 421.369C146.453 420.571 145.465 420.029 145.465 420.125C145.465 420.221 146.134 420.986 146.932 421.847C148.112 423.091 148.303 423.442 147.825 423.442C146.995 423.442 145.592 422.549 141.159 419.168C136.79 415.82 136.153 415.373 136.822 416.202C137.62 417.223 136.854 417.191 134.749 416.171C132.453 415.022 132.294 414.991 132.453 415.533Z" fill="#3296fa" fill-rule="nonzero" opacity="1" stroke="none"></path>
<path d="M196.171 417C196.171 417.382 199.105 418.02 200.731 418.02C202.549 418.02 201.847 417.542 199.328 417.127C196.809 416.681 196.171 416.649 196.171 417Z" fill="#3296fa" fill-rule="nonzero" opacity="1" stroke="none"></path>
<path d="M381.52 417.733C380.18 418.722 379.861 419.328 381.041 418.722C381.615 418.403 383.274 416.745 383.019 416.745C382.923 416.745 382.253 417.191 381.52 417.733Z" fill="#3296fa" fill-rule="nonzero" opacity="1" stroke="none"></path>
<path d="M196.426 419.838C196.649 419.934 196.936 419.902 197.032 419.806C197.16 419.71 196.968 419.615 196.617 419.647C196.267 419.647 196.171 419.742 196.426 419.838Z" fill="#3296fa" fill-rule="nonzero" opacity="1" stroke="none"></path>
<path d="M198.021 420.157C198.244 420.253 198.531 420.221 198.626 420.125C198.754 420.029 198.563 419.934 198.212 419.966C197.861 419.966 197.765 420.061 198.021 420.157Z" fill="#3296fa" fill-rule="nonzero" opacity="1" stroke="none"></path>
<path d="M236.991 424.43C236.64 424.685 236.608 424.813 236.927 424.94C237.597 425.196 236.991 425.674 235.939 425.674C234.663 425.706 235.333 426.12 237.087 426.439C238.33 426.663 238.617 427.077 237.756 427.396C237.119 427.651 233.196 427.651 231.92 427.396C230.709 427.141 230.932 426.631 232.239 426.631C232.845 426.631 233.132 426.503 233.005 426.28C232.686 425.802 229.337 426.057 229.018 426.599C228.859 426.918 227.679 427.141 225.064 427.364C223.023 427.556 221.365 427.779 221.365 427.906C221.365 428.002 222.704 428.353 224.33 428.672C232.59 430.266 236.226 430.808 240.658 430.968C245.346 431.159 245.474 431.159 246.558 430.394C247.642 429.628 247.674 429.565 247.611 427.587C247.579 426.503 247.451 425.483 247.292 425.323C247.005 425.036 240.148 424.079 238.49 424.079C237.916 424.079 237.246 424.239 236.991 424.43Z" fill="#3296fa" fill-rule="nonzero" opacity="1" stroke="none"></path>
<path d="M360.886 430.426C360.695 430.585 359.515 431.287 358.239 431.988C355.88 433.232 355.656 433.647 357.283 433.647C358.367 433.647 359.802 433.073 361.652 431.925C362.927 431.095 362.991 431.032 362.417 430.617C361.747 430.075 361.301 430.043 360.886 430.426Z" fill="#3296fa" fill-rule="nonzero" opacity="1" stroke="none"></path>
<path d="M353.233 433.647C352.148 434.795 352.244 434.795 354.221 433.934C355.401 433.455 355.656 433.232 355.305 433.009C354.54 432.53 354.221 432.626 353.233 433.647Z" fill="#3296fa" fill-rule="nonzero" opacity="1" stroke="none"></path>
<path d="M350.235 435.592C349.469 435.943 348.895 436.294 348.991 436.389C349.31 436.676 350.777 436.166 351.351 435.528C351.989 434.795 352.021 434.795 350.235 435.592Z" fill="#3296fa" fill-rule="nonzero" opacity="1" stroke="none"></path>
<path d="M281.542 438.59C279.342 439.068 279.087 439.228 280.235 439.515C281.096 439.738 284.03 438.94 284.349 438.398C284.604 438.016 283.87 438.079 281.542 438.59Z" fill="#3296fa" fill-rule="nonzero" opacity="1" stroke="none"></path>
<path d="M329.538 443.533C325.105 445.095 320.672 446.722 319.684 447.168C318.727 447.615 317.547 447.997 317.132 447.997C316.367 447.997 312.094 450.166 312.349 450.421C312.413 450.517 313.114 450.421 313.879 450.262C318.121 449.273 315.187 450.804 309.957 452.335C304.982 453.738 298.987 454.982 295.797 455.205L293.278 455.364L296.946 454.057C302.494 452.079 303.069 451.92 306.098 451.314C308.681 450.836 310.244 450.23 309 450.23C308.713 450.23 308.426 450.07 308.362 449.879C308.267 449.624 306.991 449.815 304.28 450.485C296.977 452.303 289.356 453.515 275.802 455.013C271.082 455.556 267.032 455.97 266.777 455.97C266.49 455.97 266.394 456.098 266.49 456.289C266.586 456.448 267.223 456.608 267.861 456.608C269.934 456.608 268.499 457.15 264.895 457.724C262.982 458.011 261.132 458.426 260.781 458.585C259.602 459.223 260.813 459.414 263.62 459C265.214 458.808 267.287 458.681 268.244 458.745C269.201 458.808 271.146 458.745 272.549 458.585L275.1 458.33L273.825 457.692L272.549 457.086L275.706 456.991C278.002 456.927 279.214 457.054 280.107 457.405C281.797 458.075 284.827 458.011 289.419 457.214C291.556 456.863 294.203 456.448 295.351 456.289C303.419 455.269 322.49 449.751 334.672 444.936C340.891 442.448 342.039 441.619 339.169 441.619C337.989 441.619 337.734 441.524 337.893 441.141C337.989 440.886 337.957 440.663 337.829 440.663C337.702 440.694 333.971 441.97 329.538 443.533Z" fill="#3296fa" fill-rule="nonzero" opacity="1" stroke="none"></path>
<path d="M253.574 452.462C253.574 452.845 253.829 452.845 254.69 452.462C255.264 452.207 255.232 452.175 254.467 452.175C253.957 452.143 253.574 452.271 253.574 452.462Z" fill="#3296fa" fill-rule="nonzero" opacity="1" stroke="none"></path>
</g>
<g opacity="1">
<path d="M211.975 230.662C213.665 231.164 214.958 231.982 215.855 233.117C216.753 234.252 217.201 235.651 217.201 237.313C217.201 239.768 216.271 241.681 214.41 243.054C212.55 244.426 209.89 245.113 206.433 245.113L192.774 245.113L192.774 217.399L205.681 217.399C208.901 217.399 211.408 218.02 213.203 219.26C214.998 220.501 215.895 222.269 215.895 224.565C215.895 225.938 215.552 227.145 214.866 228.188C214.179 229.23 213.216 230.055 211.975 230.662ZM199.148 228.881L205.126 228.881C206.525 228.881 207.581 228.597 208.294 228.029C209.006 227.462 209.362 226.624 209.362 225.515C209.362 224.433 209 223.602 208.274 223.021C207.548 222.441 206.499 222.15 205.126 222.15L199.148 222.15L199.148 228.881ZM206.195 240.362C209.204 240.362 210.709 239.174 210.709 236.799C210.709 234.502 209.204 233.354 206.195 233.354L199.148 233.354L199.148 240.362L206.195 240.362Z" fill="#3296fa" fill-rule="nonzero" opacity="1" stroke="none"></path>
<path d="M241.035 239.174L228.168 239.174L225.713 245.113L219.141 245.113L231.494 217.399L237.828 217.399L250.22 245.113L243.489 245.113L241.035 239.174ZM239.016 234.304L234.621 223.694L230.227 234.304L239.016 234.304Z" fill="#3296fa" fill-rule="nonzero" opacity="1" stroke="none"></path>
<path d="M290.483 217.399L290.483 245.113L253.902 245.113L253.902 217.399L260.276 217.399L260.276 239.887L269.025 239.887L269.025 217.399L275.399 217.399L275.399 239.887L284.109 239.887L284.109 217.399L290.483 217.399Z" fill="#3296fa" fill-rule="nonzero" opacity="1" stroke="none"></path>
<path d="M316.138 239.174L303.271 239.174L300.816 245.113L294.244 245.113L306.597 217.399L312.931 217.399L325.323 245.113L318.592 245.113L316.138 239.174ZM314.119 234.304L309.724 223.694L305.33 234.304L314.119 234.304Z" fill="#3296fa" fill-rule="nonzero" opacity="1" stroke="none"></path>
<path d="M130.083 270.886L121.214 270.886L121.214 293.373L114.88 293.373L114.88 270.886L106.051 270.886L106.051 265.66L130.083 265.66L130.083 270.886Z" fill="#3296fa" fill-rule="nonzero" opacity="1" stroke="none"></path>
<path d="M134.121 265.66L140.495 265.66L140.495 283.713L153.718 265.66L159.736 265.66L159.736 293.373L153.401 293.373L153.401 275.36L140.178 293.373L134.121 293.373L134.121 265.66Z" fill="#3296fa" fill-rule="nonzero" opacity="1" stroke="none"></path>
<path d="M191.883 265.66L191.883 293.373L185.509 293.373L185.509 270.886L172.999 270.886L172.999 293.373L166.625 293.373L166.625 265.66L191.883 265.66Z" fill="#3296fa" fill-rule="nonzero" opacity="1" stroke="none"></path>
<path d="M211.995 293.848C209.118 293.848 206.525 293.228 204.216 291.988C201.906 290.747 200.098 289.038 198.792 286.861C197.485 284.683 196.832 282.235 196.832 279.517C196.832 276.798 197.485 274.35 198.792 272.173C200.098 269.995 201.906 268.286 204.216 267.046C206.525 265.805 209.118 265.185 211.995 265.185C214.872 265.185 217.459 265.805 219.755 267.046C222.051 268.286 223.859 269.995 225.179 272.173C226.499 274.35 227.158 276.798 227.158 279.517C227.158 282.235 226.499 284.683 225.179 286.861C223.859 289.038 222.051 290.747 219.755 291.988C217.459 293.228 214.872 293.848 211.995 293.848ZM211.995 288.385C213.632 288.385 215.11 288.009 216.429 287.257C217.749 286.504 218.785 285.455 219.537 284.109C220.289 282.763 220.666 281.232 220.666 279.517C220.666 277.801 220.289 276.27 219.537 274.924C218.785 273.578 217.749 272.529 216.429 271.777C215.11 271.025 213.632 270.648 211.995 270.648C210.359 270.648 208.881 271.025 207.561 271.777C206.241 272.529 205.206 273.578 204.453 274.924C203.701 276.27 203.325 277.801 203.325 279.517C203.325 281.232 203.701 282.763 204.453 284.109C205.206 285.455 206.241 286.504 207.561 287.257C208.881 288.009 210.359 288.385 211.995 288.385Z" fill="#3296fa" fill-rule="nonzero" opacity="1" stroke="none"></path>
<path d="M251.625 270.886L238.442 270.886L238.481 293.373L232.107 293.373L232.107 265.66L251.665 265.66L251.625 270.886Z" fill="#3296fa" fill-rule="nonzero" opacity="1" stroke="none"></path>
<path d="M267.58 265.66C270.035 265.66 272.166 266.069 273.974 266.887C275.782 267.706 277.174 268.867 278.151 270.371C279.127 271.876 279.616 273.657 279.616 275.716C279.616 277.748 279.127 279.523 278.151 281.041C277.174 282.559 275.782 283.72 273.974 284.525C272.166 285.33 270.035 285.732 267.58 285.732L261.998 285.732L261.998 293.373L255.584 293.373L255.584 265.66L267.58 265.66ZM267.224 280.506C269.151 280.506 270.615 280.091 271.618 279.259C272.621 278.428 273.123 277.247 273.123 275.716C273.123 274.159 272.621 272.964 271.618 272.133C270.615 271.302 269.151 270.886 267.224 270.886L261.998 270.886L261.998 280.506L267.224 280.506Z" fill="#3296fa" fill-rule="nonzero" opacity="1" stroke="none"></path>
<path d="M301.232 287.435L288.365 287.435L285.911 293.373L279.339 293.373L291.691 265.66L298.025 265.66L310.417 293.373L303.687 293.373L301.232 287.435ZM299.213 282.565L294.818 271.955L290.424 282.565L299.213 282.565Z" fill="#3296fa" fill-rule="nonzero" opacity="1" stroke="none"></path>
<path d="M346.523 279.438C346.523 283.106 345.276 285.99 342.782 288.088C340.288 290.186 336.705 291.354 332.033 291.592L332.033 294.601L326.134 294.601L326.134 291.552C321.436 291.288 317.84 290.107 315.346 288.009C312.852 285.911 311.605 283.053 311.605 279.438C311.605 275.795 312.852 272.938 315.346 270.866C317.84 268.794 321.436 267.613 326.134 267.323L326.134 264.472L332.033 264.472L332.033 267.283C336.705 267.547 340.288 268.735 342.782 270.846C345.276 272.958 346.523 275.822 346.523 279.438ZM332.033 286.564C334.831 286.3 336.916 285.581 338.289 284.406C339.661 283.232 340.347 281.562 340.347 279.398C340.347 275.175 337.576 272.826 332.033 272.351L332.033 286.564ZM317.82 279.438C317.82 283.608 320.592 285.983 326.134 286.564L326.134 272.351C323.31 272.615 321.219 273.321 319.859 274.469C318.5 275.617 317.82 277.273 317.82 279.438Z" fill="#3296fa" fill-rule="nonzero" opacity="1" stroke="none"></path>
<path d="M351.314 265.66L357.688 265.66L357.688 283.713L370.911 265.66L376.929 265.66L376.929 293.373L370.594 293.373L370.594 275.36L357.371 293.373L351.314 293.373L351.314 265.66Z" fill="#3296fa" fill-rule="nonzero" opacity="1" stroke="none"></path>
<path d="M405.949 265.66L405.949 293.373L399.614 293.373L399.614 286.01L393.755 286.01L388.846 293.373L382.076 293.373L387.856 285.02C385.982 284.254 384.543 283.1 383.541 281.556C382.538 280.012 382.036 278.157 382.036 275.993C382.036 273.855 382.524 272.014 383.501 270.47C384.477 268.926 385.863 267.739 387.658 266.907C389.453 266.076 391.564 265.66 393.992 265.66L405.949 265.66ZM394.151 270.886C392.33 270.886 390.937 271.308 389.974 272.153C389.011 272.997 388.529 274.251 388.529 275.914C388.529 277.524 388.991 278.764 389.915 279.635C390.838 280.506 392.198 280.942 393.992 280.942L399.614 280.942L399.614 270.886L394.151 270.886Z" fill="#3296fa" fill-rule="nonzero" opacity="1" stroke="none"></path>
</g>
</g>
</svg></svg><style>@media (prefers-color-scheme: light) { :root { filter: none; } }
@media (prefers-color-scheme: dark) { :root { filter: none; } }
</style></svg>